  0
SECTION
  2
HEADER
  9
$ACADVER
  1
AC1015
  9
$ACADMAINTVER
 70
     6
  9
$DWGCODEPAGE
  3
ANSI_1252
  9
$INSBASE
 10
0.0
 20
0.0
 30
0.0
  9
$EXTMIN
 10
-591.6170730633
 20
-419.7624054852
 30
0.0
  9
$EXTMAX
 10
-306.9612559448
 20
-2.1944971313
 30
0.0
  9
$LIMMIN
 10
0.0
 20
0.0
  9
$LIMMAX
 10
420.0
 20
297.0
  9
$ORTHOMODE
 70
     0
  9
$REGENMODE
 70
     1
  9
$FILLMODE
 70
     1
  9
$QTEXTMODE
 70
     0
  9
$MIRRTEXT
 70
     1
  9
$LTSCALE
 40
1.0
  9
$ATTMODE
 70
     1
  9
$TEXTSIZE
 40
3.5
  9
$TRACEWID
 40
1.0
  9
$TEXTSTYLE
  7
Standard
  9
$CLAYER
  8
0
  9
$CELTYPE
  6
ByLayer
  9
$CECOLOR
 62
   256
  9
$CELTSCALE
 40
1.0
  9
$DISPSILH
 70
     0
  9
$DIMSCALE
 40
1.0
  9
$DIMASZ
 40
3.556
  9
$DIMEXO
 40
0.0
  9
$DIMDLI
 40
3.75
  9
$DIMRND
 40
0.0
  9
$DIMDLE
 40
0.0
  9
$DIMEXE
 40
1.0
  9
$DIMTP
 40
0.0
  9
$DIMTM
 40
0.0
  9
$DIMTXT
 40
3.5
  9
$DIMCEN
 40
2.5
  9
$DIMTSZ
 40
0.0
  9
$DIMTOL
 70
     0
  9
$DIMLIM
 70
     0
  9
$DIMTIH
 70
     1
  9
$DIMTOH
 70
     1
  9
$DIMSE1
 70
     0
  9
$DIMSE2
 70
     0
  9
$DIMTAD
 70
     1
  9
$DIMZIN
 70
     1
  9
$DIMBLK
  1

  9
$DIMASO
 70
     1
  9
$DIMSHO
 70
     1
  9
$DIMPOST
  1

  9
$DIMAPOST
  1

  9
$DIMALT
 70
     0
  9
$DIMALTD
 70
     3
  9
$DIMALTF
 40
0.0393700787
  9
$DIMLFAC
 40
1.0
  9
$DIMTOFL
 70
     1
  9
$DIMTVP
 40
0.0
  9
$DIMTIX
 70
     0
  9
$DIMSOXD
 70
     0
  9
$DIMSAH
 70
     0
  9
$DIMBLK1
  1

  9
$DIMBLK2
  1

  9
$DIMSTYLE
  2
ISO-25
  9
$DIMCLRD
 70
     0
  9
$DIMCLRE
 70
     0
  9
$DIMCLRT
 70
     0
  9
$DIMTFAC
 40
1.0
  9
$DIMGAP
 40
1.524
  9
$DIMJUST
 70
     0
  9
$DIMSD1
 70
     0
  9
$DIMSD2
 70
     0
  9
$DIMTOLJ
 70
     0
  9
$DIMTZIN
 70
     1
  9
$DIMALTZ
 70
     0
  9
$DIMALTTZ
 70
     0
  9
$DIMUPT
 70
     0
  9
$DIMDEC
 70
     2
  9
$DIMTDEC
 70
     2
  9
$DIMALTU
 70
     2
  9
$DIMALTTD
 70
     3
  9
$DIMTXSTY
  7
Standard
  9
$DIMAUNIT
 70
     0
  9
$DIMADEC
 70
     2
  9
$DIMALTRND
 40
0.0
  9
$DIMAZIN
 70
     0
  9
$DIMDSEP
 70
    44
  9
$DIMATFIT
 70
     3
  9
$DIMFRAC
 70
     0
  9
$DIMLDRBLK
  1

  9
$DIMLUNIT
 70
     2
  9
$DIMLWD
 70
    -2
  9
$DIMLWE
 70
    -2
  9
$DIMTMOVE
 70
     0
  9
$LUNITS
 70
     2
  9
$LUPREC
 70
     2
  9
$SKETCHINC
 40
1.0
  9
$FILLETRAD
 40
0.0
  9
$AUNITS
 70
     0
  9
$AUPREC
 70
     2
  9
$MENU
  1
.
  9
$ELEVATION
 40
0.0
  9
$PELEVATION
 40
0.0
  9
$THICKNESS
 40
0.0
  9
$LIMCHECK
 70
     0
  9
$CHAMFERA
 40
0.0
  9
$CHAMFERB
 40
0.0
  9
$CHAMFERC
 40
0.0
  9
$CHAMFERD
 40
0.0
  9
$SKPOLY
 70
     0
  9
$TDCREATE
 40
2459851.548065116
  9
$TDUCREATE
 40
2459851.464731782
  9
$TDUPDATE
 40
2459851.548092778
  9
$TDUUPDATE
 40
2459851.464759444
  9
$TDINDWG
 40
0.0000000116
  9
$TDUSRTIMER
 40
0.0000000116
  9
$USRTIMER
 70
     1
  9
$ANGBASE
 50
0.0
  9
$ANGDIR
 70
     0
  9
$PDMODE
 70
     0
  9
$PDSIZE
 40
-1.0
  9
$PLINEWID
 40
0.0
  9
$SPLFRAME
 70
     0
  9
$SPLINETYPE
 70
     6
  9
$SPLINESEGS
 70
     8
  9
$HANDSEED
  5
3C1
  9
$SURFTAB1
 70
     6
  9
$SURFTAB2
 70
     6
  9
$SURFTYPE
 70
     6
  9
$SURFU
 70
     6
  9
$SURFV
 70
     6
  9
$UCSBASE
  2

  9
$UCSNAME
  2

  9
$UCSORG
 10
0.0
 20
0.0
 30
0.0
  9
$UCSXDIR
 10
1.0
 20
0.0
 30
0.0
  9
$UCSYDIR
 10
0.0
 20
1.0
 30
0.0
  9
$UCSORTHOREF
  2

  9
$UCSORTHOVIEW
 70
     0
  9
$UCSORGTOP
 10
0.0
 20
0.0
 30
0.0
  9
$UCSORGBOTTOM
 10
0.0
 20
0.0
 30
0.0
  9
$UCSORGLEFT
 10
0.0
 20
0.0
 30
0.0
  9
$UCSORGRIGHT
 10
0.0
 20
0.0
 30
0.0
  9
$UCSORGFRONT
 10
0.0
 20
0.0
 30
0.0
  9
$UCSORGBACK
 10
0.0
 20
0.0
 30
0.0
  9
$PUCSBASE
  2

  9
$PUCSNAME
  2

  9
$PUCSORG
 10
0.0
 20
0.0
 30
0.0
  9
$PUCSXDIR
 10
1.0
 20
0.0
 30
0.0
  9
$PUCSYDIR
 10
0.0
 20
1.0
 30
0.0
  9
$PUCSORTHOREF
  2

  9
$PUCSORTHOVIEW
 70
     0
  9
$PUCSORGTOP
 10
0.0
 20
0.0
 30
0.0
  9
$PUCSORGBOTTOM
 10
0.0
 20
0.0
 30
0.0
  9
$PUCSORGLEFT
 10
0.0
 20
0.0
 30
0.0
  9
$PUCSORGRIGHT
 10
0.0
 20
0.0
 30
0.0
  9
$PUCSORGFRONT
 10
0.0
 20
0.0
 30
0.0
  9
$PUCSORGBACK
 10
0.0
 20
0.0
 30
0.0
  9
$USERI1
 70
     0
  9
$USERI2
 70
     0
  9
$USERI3
 70
     0
  9
$USERI4
 70
     0
  9
$USERI5
 70
     0
  9
$USERR1
 40
0.0
  9
$USERR2
 40
0.0
  9
$USERR3
 40
0.0
  9
$USERR4
 40
0.0
  9
$USERR5
 40
0.0
  9
$WORLDVIEW
 70
     1
  9
$SHADEDGE
 70
     3
  9
$SHADEDIF
 70
    70
  9
$TILEMODE
 70
     1
  9
$MAXACTVP
 70
    64
  9
$PINSBASE
 10
0.0
 20
0.0
 30
0.0
  9
$PLIMCHECK
 70
     0
  9
$PEXTMIN
 10
1.0000000000E+20
 20
1.0000000000E+20
 30
1.0000000000E+20
  9
$PEXTMAX
 10
-1.0000000000E+20
 20
-1.0000000000E+20
 30
-1.0000000000E+20
  9
$PLIMMIN
 10
0.0
 20
0.0
  9
$PLIMMAX
 10
420.0
 20
297.0
  9
$UNITMODE
 70
     0
  9
$VISRETAIN
 70
     1
  9
$PLINEGEN
 70
     0
  9
$PSLTSCALE
 70
     1
  9
$TREEDEPTH
 70
  3020
  9
$CMLSTYLE
  2
Standard
  9
$CMLJUST
 70
     0
  9
$CMLSCALE
 40
20.0
  9
$PROXYGRAPHICS
 70
     1
  9
$MEASUREMENT
 70
     1
  9
$CELWEIGHT
370
    -1
  9
$ENDCAPS
280
     0
  9
$JOINSTYLE
280
     0
  9
$LWDISPLAY
290
     1
  9
$INSUNITS
 70
     4
  9
$HYPERLINKBASE
  1

  9
$STYLESHEET
  1

  9
$XEDIT
290
     1
  9
$CEPSNTYPE
380
     0
  9
$PSTYLEMODE
290
     1
  9
$FINGERPRINTGUID
  2
{e0233116-4603-43a5-8688-24b3b369231d}
  9
$VERSIONGUID
  2
{FAEB1C32-E019-11D5-929B-00C0DF256EC4}
  9
$EXTNAMES
290
     1
  9
$PSVPSCALE
 40
0.0
  9
$OLESTARTUP
290
     0
  0
ENDSEC
  0
SECTION
  2
CLASSES
  0
CLASS
  1
ACDBDICTIONARYWDFLT
  2
AcDbDictionaryWithDefault
  3
ObjectDBX Classes
 90
        0
280
     0
281
     0
  0
CLASS
  1
VISUALSTYLE
  2
AcDbVisualStyle
  3
ObjectDBX Classes
 90
     4095
280
     0
281
     0
  0
CLASS
  1
MATERIAL
  2
AcDbMaterial
  3
ObjectDBX Classes
 90
     1153
280
     0
281
     0
  0
CLASS
  1
SCALE
  2
AcDbScale
  3
ObjectDBX Classes
 90
     1153
280
     0
281
     0
  0
CLASS
  1
TABLESTYLE
  2
AcDbTableStyle
  3
ObjectDBX Classes
 90
     4095
280
     0
281
     0
  0
CLASS
  1
MLEADERSTYLE
  2
AcDbMLeaderStyle
  3
ACDB_MLEADERSTYLE_CLASS
 90
     4095
280
     0
281
     0
  0
CLASS
  1
SUN
  2
AcDbSun
  3
SCENEOE
 90
     1153
280
     0
281
     0
  0
CLASS
  1
ACDBPLACEHOLDER
  2
AcDbPlaceHolder
  3
ObjectDBX Classes
 90
        0
280
     0
281
     0
  0
CLASS
  1
LAYOUT
  2
AcDbLayout
  3
ObjectDBX Classes
 90
        0
280
     0
281
     0
  0
ENDSEC
  0
SECTION
  2
TABLES
  0
TABLE
  2
VPORT
  5
8
330
0
100
AcDbSymbolTable
 70
     1
  0
VPORT
  5
29
330
8
100
AcDbSymbolTableRecord
100
AcDbViewportTableRecord
  2
*Active
 70
     0
 10
0.0
 20
0.0
 11
1.0
 21
1.0
 12
-449.2891645041
 22
-210.9784513083
 13
0.0
 23
0.0
 14
10.0
 24
10.0
 15
10.0
 25
10.0
 16
0.0
 26
0.0
 36
1.0
 17
0.0
 27
0.0
 37
0.0
 40
425.919266521
 41
0.6816994588
 42
50.0
 43
0.0
 44
0.0
 50
0.0
 51
0.0
 71
     0
 72
   100
 73
     1
 74
     3
 75
     0
 76
     0
 77
     0
 78
     0
281
     0
 65
     1
110
0.0
120
0.0
130
0.0
111
1.0
121
0.0
131
0.0
112
0.0
122
1.0
132
0.0
 79
     0
146
0.0
  0
ENDTAB
  0
TABLE
  2
LTYPE
  5
5
330
0
100
AcDbSymbolTable
 70
     6
  0
LTYPE
  5
14
330
5
100
AcDbSymbolTableRecord
100
AcDbLinetypeTableRecord
  2
ByBlock
 70
     0
  3

 72
    65
 73
     0
 40
0.0
  0
LTYPE
  5
15
330
5
100
AcDbSymbolTableRecord
100
AcDbLinetypeTableRecord
  2
ByLayer
 70
     0
  3

 72
    65
 73
     0
 40
0.0
  0
LTYPE
  5
16
330
5
100
AcDbSymbolTableRecord
100
AcDbLinetypeTableRecord
  2
Continuous
 70
     0
  3
Solid line
 72
    65
 73
     0
 40
0.0
  0
LTYPE
  5
5E
330
5
100
AcDbSymbolTableRecord
100
AcDbLinetypeTableRecord
  2
HIDDEN
 70
     0
  3
Hidden __ __ __ __ __ __ __ __ __ __ __ __ __ __
 72
    65
 73
     2
 40
1.905
 49
1.27
 74
     0
 49
-0.635
 74
     0
  0
LTYPE
  5
5F
330
5
100
AcDbSymbolTableRecord
100
AcDbLinetypeTableRecord
  2
PHANTOM
 70
     0
  3
Phantom ______  __  __  ______  __  __  ______
 72
    65
 73
     6
 40
12.7
 49
6.35
 74
     0
 49
-1.27
 74
     0
 49
1.27
 74
     0
 49
-1.27
 74
     0
 49
1.27
 74
     0
 49
-1.27
 74
     0
  0
LTYPE
  5
60
330
5
100
AcDbSymbolTableRecord
100
AcDbLinetypeTableRecord
  2
CENTER
 70
     0
  3
Center ____ _ ____ _ ____ _ ____ _ ____ _ ____
 72
    65
 73
     4
 40
10.16
 49
6.35
 74
     0
 49
-1.27
 74
     0
 49
1.27
 74
     0
 49
-1.27
 74
     0
  0
LTYPE
  5
61
330
5
100
AcDbSymbolTableRecord
100
AcDbLinetypeTableRecord
  2
CENTERX2
 70
     0
  3
Center (2x) ________  __  ________  __  _____
 72
    65
 73
     4
 40
20.32
 49
12.7
 74
     0
 49
-2.54
 74
     0
 49
2.54
 74
     0
 49
-2.54
 74
     0
  0
LTYPE
  5
62
330
5
100
AcDbSymbolTableRecord
100
AcDbLinetypeTableRecord
  2
DOT2
 70
     0
  3
Dot (.5x) ........................................
 72
    65
 73
     2
 40
0.635
 49
0.0
 74
     0
 49
-0.635
 74
     0
  0
ENDTAB
  0
TABLE
  2
LAYER
  5
2
330
0
100
AcDbSymbolTable
 70
     1
  0
LAYER
  5
10
330
2
100
AcDbSymbolTableRecord
100
AcDbLayerTableRecord
  2
0
 70
     0
 62
     7
  6
Continuous
370
    -3
390
F
  0
ENDTAB
  0
TABLE
  2
STYLE
  5
3
330
0
100
AcDbSymbolTable
 70
     1
  0
STYLE
  5
11
330
3
100
AcDbSymbolTableRecord
100
AcDbTextStyleTableRecord
  2
Standard
 70
     0
 40
0.0
 41
1.0
 50
0.0
 71
     0
 42
3.5
  3
txt
  4

  0
ENDTAB
  0
TABLE
  2
VIEW
  5
6
330
0
100
AcDbSymbolTable
 70
     0
  0
ENDTAB
  0
TABLE
  2
UCS
  5
7
330
0
100
AcDbSymbolTable
 70
     0
  0
ENDTAB
  0
TABLE
  2
APPID
  5
9
330
0
100
AcDbSymbolTable
 70
     1
  0
APPID
  5
12
330
9
100
AcDbSymbolTableRecord
100
AcDbRegAppTableRecord
  2
ACAD
 70
     0
  0
ENDTAB
  0
TABLE
  2
DIMSTYLE
  5
A
330
0
100
AcDbSymbolTable
 70
     1
100
AcDbDimStyleTable
  0
DIMSTYLE
105
27
330
A
100
AcDbSymbolTableRecord
100
AcDbDimStyleTableRecord
  2
ISO-25
 70
     0
 41
2.5
 42
0.625
 43
3.75
 44
1.25
 73
     0
 74
     0
 77
     1
 78
     8
140
2.5
141
2.5
143
0.0393700787
147
0.625
171
     3
172
     1
178
     0
271
     2
272
     2
274
     3
278
    44
283
     0
284
     8
340
11
  0
ENDTAB
  0
TABLE
  2
BLOCK_RECORD
  5
1
330
0
100
AcDbSymbolTable
 70
     1
  0
BLOCK_RECORD
  5
1F
330
1
100
AcDbSymbolTableRecord
100
AcDbBlockTableRecord
  2
*Model_Space
340
22
  0
BLOCK_RECORD
  5
1B
330
1
100
AcDbSymbolTableRecord
100
AcDbBlockTableRecord
  2
*Paper_Space
340
1E
  0
BLOCK_RECORD
  5
23
330
1
100
AcDbSymbolTableRecord
100
AcDbBlockTableRecord
  2
*Paper_Space0
340
26
  0
ENDTAB
  0
ENDSEC
  0
SECTION
  2
BLOCKS
  0
BLOCK
  5
20
330
1F
100
AcDbEntity
  8
0
100
AcDbBlockBegin
  2
*Model_Space
 70
     0
 10
0.0
 20
0.0
 30
0.0
  3
*Model_Space
  1

  0
ENDBLK
  5
21
330
1F
100
AcDbEntity
  8
0
100
AcDbBlockEnd
  0
BLOCK
  5
1C
330
1B
100
AcDbEntity
 67
     1
  8
0
100
AcDbBlockBegin
  2
*Paper_Space
 70
     0
 10
0.0
 20
0.0
 30
0.0
  3
*Paper_Space
  1

  0
ENDBLK
  5
1D
330
1B
100
AcDbEntity
 67
     1
  8
0
100
AcDbBlockEnd
  0
BLOCK
  5
24
330
23
100
AcDbEntity
  8
0
100
AcDbBlockBegin
  2
*Paper_Space0
 70
     0
 10
0.0
 20
0.0
 30
0.0
  3
*Paper_Space0
  1

  0
ENDBLK
  5
25
330
23
100
AcDbEntity
  8
0
100
AcDbBlockEnd
  0
ENDSEC
  0
SECTION
  2
ENTITIES
  0
CIRCLE
  5
177
330
1F
100
AcDbEntity
  8
0
  6
Continuous
 62
     7
370
    25
100
AcDbCircle
 10
-426.145856647
 20
-152.3980093097
 30
0.0
 40
3.996056433329124
  0
CIRCLE
  5
1E1
330
1F
100
AcDbEntity
  8
0
  6
Continuous
 62
     7
370
    25
100
AcDbCircle
 10
-535.2315850182
 20
-235.7913063051
 30
0.0
 40
0.9981797234949015
  0
CIRCLE
  5
1EE
330
1F
100
AcDbEntity
  8
0
  6
Continuous
 62
     7
370
    25
100
AcDbCircle
 10
-535.3669106673
 20
-205.8994403596
 30
0.0
 40
0.998179723495047
  0
CIRCLE
  5
1EF
330
1F
100
AcDbEntity
  8
0
  6
Continuous
 62
     7
370
    25
100
AcDbCircle
 10
-519.473002452
 20
-73.365320463
 30
0.0
 40
0.9981797234948312
  0
CIRCLE
  5
1F0
330
1F
100
AcDbEntity
  8
0
  6
Continuous
 62
     7
370
    25
100
AcDbCircle
 10
-519.3376768029
 20
-103.2571864084
 30
0.0
 40
0.9981797234949173
  0
LINE
  5
227
330
1F
100
AcDbEntity
  8
0
  6
Continuous
 62
     7
370
    25
100
AcDbLine
 10
-318.0045223527
 20
-414.7022471784
 30
0.0
 11
-317.9909897878
 21
-417.691433773
 31
0.0
  0
LINE
  5
228
330
1F
100
AcDbEntity
  8
0
  6
Continuous
 62
     7
370
    25
100
AcDbLine
 10
-317.9909897878
 20
-417.691433773
 30
0.0
 11
-327.9869902975
 21
-417.7600118083
 31
0.0
  0
LINE
  5
229
330
1F
100
AcDbEntity
  8
0
  6
Continuous
 62
     7
370
    25
100
AcDbLine
 10
-327.9869902975
 20
-417.7600118083
 30
0.0
 11
-328.0005228624
 21
-414.7708252138
 31
0.0
  0
LINE
  5
22A
330
1F
100
AcDbEntity
  8
0
  6
Continuous
 62
     7
370
    25
100
AcDbLine
 10
-328.0005228624
 20
-414.7708252138
 30
0.0
 11
-388.9761259716
 21
-415.1891512294
 31
0.0
  0
LINE
  5
22B
330
1F
100
AcDbEntity
  8
0
  6
Continuous
 62
     7
370
    25
100
AcDbLine
 10
-388.9761259716
 20
-415.1891512294
 30
0.0
 11
-388.9625934067
 21
-418.178337824
 31
0.0
  0
LINE
  5
22C
330
1F
100
AcDbEntity
  8
0
  6
Continuous
 62
     7
370
    25
100
AcDbLine
 10
-388.9625934067
 20
-418.178337824
 30
0.0
 11
-398.9585939164
 21
-418.2469158593
 31
0.0
  0
LINE
  5
22D
330
1F
100
AcDbEntity
  8
0
  6
Continuous
 62
     7
370
    25
100
AcDbLine
 10
-398.9585939164
 20
-418.2469158593
 30
0.0
 11
-398.9721264814
 21
-415.2577292648
 31
0.0
  0
LINE
  5
22E
330
1F
100
AcDbEntity
  8
0
  6
Continuous
 62
     7
370
    25
100
AcDbLine
 10
-398.9721264814
 20
-415.2577292648
 30
0.0
 11
-404.9697267872
 21
-415.298876086
 31
0.0
  0
LINE
  5
22F
330
1F
100
AcDbEntity
  8
0
  6
Continuous
 62
     7
370
    25
100
AcDbLine
 10
-404.9697267872
 20
-415.298876086
 30
0.0
 11
-405.005813627
 21
-407.3277118339
 31
0.0
  0
LINE
  5
230
330
1F
100
AcDbEntity
  8
0
  6
Continuous
 62
     7
370
    25
100
AcDbLine
 10
-405.005813627
 20
-407.3277118339
 30
0.0
 11
-411.0034139328
 21
-407.3688586551
 31
0.0
  0
LINE
  5
231
330
1F
100
AcDbEntity
  8
0
  6
Continuous
 62
     7
370
    25
100
AcDbLine
 10
-408.0497223296
 20
-397.3843299293
 30
0.0
 11
-408.0046137799
 21
-407.3482852445
 31
0.0
  0
LINE
  5
232
330
1F
100
AcDbEntity
  8
0
  6
Continuous
 62
     7
370
    25
100
AcDbLine
 10
-411.0485224825
 20
-397.40490334
 30
0.0
 11
-405.0509221767
 21
-397.3637565187
 31
0.0
  0
LINE
  5
233
330
1F
100
AcDbEntity
  8
0
  6
Continuous
 62
     7
370
    25
100
AcDbLine
 10
-405.0509221767
 20
-397.3637565187
 30
0.0
 11
-405.4163014294
 21
-316.655718466
 31
0.0
  0
LINE
  5
234
330
1F
100
AcDbEntity
  8
0
  6
Continuous
 62
     7
370
    25
100
AcDbLine
 10
-405.4163014294
 20
-316.655718466
 30
0.0
 11
-408.4151015823
 21
-316.6762918766
 31
0.0
  0
LINE
  5
235
330
1F
100
AcDbEntity
  8
0
  6
Continuous
 62
     7
370
    25
100
AcDbLine
 10
-408.4151015823
 20
-316.6762918766
 30
0.0
 11
-408.460210132
 21
-306.7123365615
 31
0.0
  0
LINE
  5
236
330
1F
100
AcDbEntity
  8
0
  6
Continuous
 62
     7
370
    25
100
AcDbLine
 10
-408.460210132
 20
-306.7123365615
 30
0.0
 11
-405.4614099791
 21
-306.6917631509
 31
0.0
  0
LINE
  5
237
330
1F
100
AcDbEntity
  8
0
  6
Continuous
 62
     7
370
    25
100
AcDbLine
 10
-405.4614099791
 20
-306.6917631509
 30
0.0
 11
-405.4974968188
 21
-298.7205988988
 31
0.0
  0
LINE
  5
238
330
1F
100
AcDbEntity
  8
0
  6
Continuous
 62
     7
370
    25
100
AcDbLine
 10
-405.4974968188
 20
-298.7205988988
 30
0.0
 11
-399.499896513
 21
-298.6794520776
 31
0.0
  0
LINE
  5
239
330
1F
100
AcDbEntity
  8
0
  6
Continuous
 62
     7
370
    25
100
AcDbLine
 10
-399.499896513
 20
-298.6794520776
 30
0.0
 11
-399.5134290779
 21
-295.690265483
 31
0.0
  0
LINE
  5
23A
330
1F
100
AcDbEntity
  8
0
  6
Continuous
 62
     7
370
    25
100
AcDbLine
 10
-408.5098295367
 20
-295.7519857148
 30
0.0
 11
-378.5218280075
 21
-295.5462516088
 31
0.0
  0
LINE
  5
23B
330
1F
100
AcDbEntity
  8
0
  6
Continuous
 62
     7
370
    25
100
AcDbLine
 10
-389.5174285682
 20
-295.6216874477
 30
0.0
 11
-389.5038960033
 21
-298.6108740422
 31
0.0
  0
LINE
  5
23C
330
1F
100
AcDbEntity
  8
0
  6
Continuous
 62
     7
370
    25
100
AcDbLine
 10
-389.5038960033
 20
-298.6108740422
 30
0.0
 11
-328.528292894
 21
-298.1925480266
 31
0.0
  0
LINE
  5
23D
330
1F
100
AcDbEntity
  8
0
  6
Continuous
 62
     7
370
    25
100
AcDbLine
 10
-328.528292894
 20
-298.1925480266
 30
0.0
 11
-328.541825459
 21
-295.203361432
 31
0.0
  0
LINE
  5
23E
330
1F
100
AcDbEntity
  8
0
  6
Continuous
 62
     7
370
    25
100
AcDbLine
 10
-348.5338264784
 20
-295.3405175027
 30
0.0
 11
-318.5458249492
 21
-295.1347833967
 31
0.0
  0
LINE
  5
23F
330
1F
100
AcDbEntity
  8
0
  6
Continuous
 62
     7
370
    25
100
AcDbLine
 10
-318.5322923843
 20
-298.1239699912
 30
0.0
 11
-318.8706065072
 21
-223.3943051276
 31
0.0
  0
LINE
  5
240
330
1F
100
AcDbEntity
  8
0
  6
Continuous
 62
     7
370
    25
100
AcDbLine
 10
-318.5322923843
 20
-298.1239699912
 30
0.0
 11
-310.5354919766
 21
-298.0691075629
 31
0.0
  0
LINE
  5
241
330
1F
100
AcDbEntity
  8
0
  6
Continuous
 62
     7
370
    25
100
AcDbLine
 10
-310.5354919766
 20
-298.0691075629
 30
0.0
 11
-310.4994051368
 21
-306.040271815
 31
0.0
  0
LINE
  5
242
330
1F
100
AcDbEntity
  8
0
  6
Continuous
 62
     7
370
    25
100
AcDbLine
 10
-310.4994051368
 20
-306.040271815
 30
0.0
 11
-307.5006049839
 21
-306.0196984044
 31
0.0
  0
LINE
  5
243
330
1F
100
AcDbEntity
  8
0
  6
Continuous
 62
     7
370
    25
100
AcDbLine
 10
-307.5006049839
 20
-306.0196984044
 30
0.0
 11
-307.4554964342
 21
-315.9836537196
 31
0.0
  0
LINE
  5
244
330
1F
100
AcDbEntity
  8
0
  6
Continuous
 62
     7
370
    25
100
AcDbLine
 10
-307.4554964342
 20
-315.9836537196
 30
0.0
 11
-310.4542965871
 21
-316.0042271302
 31
0.0
  0
LINE
  5
245
330
1F
100
AcDbEntity
  8
0
  6
Continuous
 62
     7
370
    25
100
AcDbLine
 10
-310.4542965871
 20
-316.0042271302
 30
0.0
 11
-310.0889173344
 21
-396.7122651829
 31
0.0
  0
LINE
  5
246
330
1F
100
AcDbEntity
  8
0
  6
Continuous
 62
     7
370
    25
100
AcDbLine
 10
-310.0889173344
 20
-396.7122651829
 30
0.0
 11
-307.0901171815
 21
-396.6916917723
 31
0.0
  0
LINE
  5
247
330
1F
100
AcDbEntity
  8
0
  6
Continuous
 62
     7
370
    25
100
AcDbLine
 10
-307.0901171815
 20
-396.6916917723
 30
0.0
 11
-307.0450086318
 21
-406.6556470874
 31
0.0
  0
LINE
  5
248
330
1F
100
AcDbEntity
  8
0
  6
Continuous
 62
     7
370
    25
100
AcDbLine
 10
-307.0450086318
 20
-406.6556470874
 30
0.0
 11
-310.0438087847
 21
-406.676220498
 31
0.0
  0
LINE
  5
249
330
1F
100
AcDbEntity
  8
0
  6
Continuous
 62
     7
370
    25
100
AcDbLine
 10
-310.0438087847
 20
-406.676220498
 30
0.0
 11
-310.0077219449
 21
-414.6473847501
 31
0.0
  0
LINE
  5
24A
330
1F
100
AcDbEntity
  8
0
  6
Continuous
 62
     7
370
    25
100
AcDbLine
 10
-310.0077219449
 20
-414.6473847501
 30
0.0
 11
-318.0045223527
 21
-414.7022471784
 31
0.0
  0
LINE
  5
24B
330
1F
100
AcDbEntity
  8
0
  6
Continuous
 62
     7
370
    25
100
AcDbLine
 10
-317.9072371008
 20
-417.9450875484
 30
0.0
 11
-317.9909897878
 21
-417.691433773
 31
0.0
  0
LINE
  5
24C
330
1F
100
AcDbEntity
  8
0
  6
Continuous
 62
     7
370
    25
100
AcDbLine
 10
-317.9072371008
 20
-417.9450875484
 30
0.0
 11
-327.9032376105
 21
-418.0136655837
 31
0.0
  0
LINE
  5
24D
330
1F
100
AcDbEntity
  8
0
  6
Continuous
 62
     7
370
    25
100
AcDbLine
 10
-327.9032376105
 20
-418.0136655837
 30
0.0
 11
-327.9869902975
 21
-417.7600118083
 31
0.0
  0
LINE
  5
24E
330
1F
100
AcDbEntity
  8
0
  6
Continuous
 62
     7
370
    25
100
AcDbLine
 10
-317.9207696657
 20
-414.9559009538
 30
0.0
 11
-318.0045223527
 21
-414.7022471784
 31
0.0
  0
LINE
  5
24F
330
1F
100
AcDbEntity
  8
0
  6
Continuous
 62
     7
370
    25
100
AcDbLine
 10
-317.9207696657
 20
-414.9559009538
 30
0.0
 11
-317.9072371008
 21
-417.9450875484
 31
0.0
  0
LINE
  5
250
330
1F
100
AcDbEntity
  8
0
  6
Continuous
 62
     7
370
    25
100
AcDbLine
 10
-309.923969258
 20
-414.9010385255
 30
0.0
 11
-310.0077219449
 21
-414.6473847501
 31
0.0
  0
LINE
  5
251
330
1F
100
AcDbEntity
  8
0
  6
Continuous
 62
     7
370
    25
100
AcDbLine
 10
-309.923969258
 20
-414.9010385255
 30
0.0
 11
-317.9207696657
 21
-414.9559009538
 31
0.0
  0
LINE
  5
252
330
1F
100
AcDbEntity
  8
0
  6
Continuous
 62
     7
370
    25
100
AcDbLine
 10
-309.9600560977
 20
-406.9298742734
 30
0.0
 11
-310.0438087847
 21
-406.676220498
 31
0.0
  0
LINE
  5
253
330
1F
100
AcDbEntity
  8
0
  6
Continuous
 62
     7
370
    25
100
AcDbLine
 10
-309.9600560977
 20
-406.9298742734
 30
0.0
 11
-309.923969258
 21
-414.9010385255
 31
0.0
  0
LINE
  5
254
330
1F
100
AcDbEntity
  8
0
  6
Continuous
 62
     7
370
    25
100
AcDbLine
 10
-327.9993719623
 20
-415.0250456827
 30
0.0
 11
-388.8923732847
 21
-415.4428050048
 31
0.0
  0
LINE
  5
255
330
1F
100
AcDbEntity
  8
0
  6
Continuous
 62
     7
370
    25
100
AcDbLine
 10
-388.8923732847
 20
-415.4428050048
 30
0.0
 11
-388.9761259716
 21
-415.1891512294
 31
0.0
  0
LINE
  5
256
330
1F
100
AcDbEntity
  8
0
  6
Continuous
 62
     7
370
    25
100
AcDbLine
 10
-307.0063644945
 20
-396.9453455477
 30
0.0
 11
-307.0901171815
 21
-396.6916917723
 31
0.0
  0
LINE
  5
257
330
1F
100
AcDbEntity
  8
0
  6
Continuous
 62
     7
370
    25
100
AcDbLine
 10
-307.0063644945
 20
-396.9453455477
 30
0.0
 11
-306.9612559448
 21
-406.9093008628
 31
0.0
  0
LINE
  5
258
330
1F
100
AcDbEntity
  8
0
  6
Continuous
 62
     7
370
    25
100
AcDbLine
 10
-306.9612559448
 20
-406.9093008628
 30
0.0
 11
-307.0450086318
 21
-406.6556470874
 31
0.0
  0
LINE
  5
259
330
1F
100
AcDbEntity
  8
0
  6
Continuous
 62
     7
370
    25
100
AcDbLine
 10
-306.9612559448
 20
-406.9093008628
 30
0.0
 11
-309.9600560977
 21
-406.9298742734
 31
0.0
  0
LINE
  5
25A
330
1F
100
AcDbEntity
  8
0
  6
Continuous
 62
     7
370
    25
100
AcDbLine
 10
-310.3705439001
 20
-316.2578809056
 30
0.0
 11
-310.4542965871
 21
-316.0042271302
 31
0.0
  0
LINE
  5
25B
330
1F
100
AcDbEntity
  8
0
  6
Continuous
 62
     7
370
    25
100
AcDbLine
 10
-310.3705439001
 20
-316.2578809056
 30
0.0
 11
-310.0063155475
 21
-396.7116984894
 31
0.0
  0
LINE
  5
25C
330
1F
100
AcDbEntity
  8
0
  6
Continuous
 62
     7
370
    25
100
AcDbLine
 10
-388.8788407198
 20
-418.4319915994
 30
0.0
 11
-388.9625934067
 21
-418.178337824
 31
0.0
  0
LINE
  5
25D
330
1F
100
AcDbEntity
  8
0
  6
Continuous
 62
     7
370
    25
100
AcDbLine
 10
-388.8788407198
 20
-418.4319915994
 30
0.0
 11
-398.8748412295
 21
-418.5005696347
 31
0.0
  0
LINE
  5
25E
330
1F
100
AcDbEntity
  8
0
  6
Continuous
 62
     7
370
    25
100
AcDbLine
 10
-398.8748412295
 20
-418.5005696347
 30
0.0
 11
-398.9585939164
 21
-418.2469158593
 31
0.0
  0
LINE
  5
25F
330
1F
100
AcDbEntity
  8
0
  6
Continuous
 62
     7
370
    25
100
AcDbLine
 10
-388.8923732847
 20
-415.4428050048
 30
0.0
 11
-388.8788407198
 21
-418.4319915994
 31
0.0
  0
LINE
  5
260
330
1F
100
AcDbEntity
  8
0
  6
Continuous
 62
     7
370
    25
100
AcDbLine
 10
-398.9709755813
 20
-415.5119497337
 30
0.0
 11
-404.8859741003
 21
-415.5525298614
 31
0.0
  0
LINE
  5
261
330
1F
100
AcDbEntity
  8
0
  6
Continuous
 62
     7
370
    25
100
AcDbLine
 10
-404.8859741003
 20
-415.5525298614
 30
0.0
 11
-404.9697267872
 21
-415.298876086
 31
0.0
  0
LINE
  5
262
330
1F
100
AcDbEntity
  8
0
  6
Continuous
 62
     7
370
    25
100
AcDbLine
 10
-407.9208610929
 20
-407.6019390199
 30
0.0
 11
-408.0046137799
 21
-407.3482852445
 31
0.0
  0
LINE
  5
263
330
1F
100
AcDbEntity
  8
0
  6
Continuous
 62
     7
370
    25
100
AcDbLine
 10
-405.0046627269
 20
-407.5819323028
 30
0.0
 11
-410.9196612459
 21
-407.6225124305
 31
0.0
  0
LINE
  5
264
330
1F
100
AcDbEntity
  8
0
  6
Continuous
 62
     7
370
    25
100
AcDbLine
 10
-307.3717437472
 20
-316.237307495
 30
0.0
 11
-307.4554964342
 21
-315.9836537196
 31
0.0
  0
LINE
  5
265
330
1F
100
AcDbEntity
  8
0
  6
Continuous
 62
     7
370
    25
100
AcDbLine
 10
-307.3717437472
 20
-316.237307495
 30
0.0
 11
-310.3705439001
 21
-316.2578809056
 31
0.0
  0
LINE
  5
266
330
1F
100
AcDbEntity
  8
0
  6
Continuous
 62
     7
370
    25
100
AcDbLine
 10
-307.4168522969
 20
-306.2733521798
 30
0.0
 11
-307.5006049839
 21
-306.0196984044
 31
0.0
  0
LINE
  5
267
330
1F
100
AcDbEntity
  8
0
  6
Continuous
 62
     7
370
    25
100
AcDbLine
 10
-307.4168522969
 20
-306.2733521798
 30
0.0
 11
-307.3717437472
 21
-316.237307495
 31
0.0
  0
LINE
  5
268
330
1F
100
AcDbEntity
  8
0
  6
Continuous
 62
     7
370
    25
100
AcDbLine
 10
-310.4517392896
 20
-298.3227613383
 30
0.0
 11
-310.5354919766
 21
-298.0691075629
 31
0.0
  0
LINE
  5
269
330
1F
100
AcDbEntity
  8
0
  6
Continuous
 62
     7
370
    25
100
AcDbLine
 10
-310.4517392896
 20
-298.3227613383
 30
0.0
 11
-310.4168033499
 21
-306.0397051216
 31
0.0
  0
LINE
  5
26A
330
1F
100
AcDbEntity
  8
0
  6
Continuous
 62
     7
370
    25
100
AcDbLine
 10
-318.4620722623
 20
-295.3884371721
 30
0.0
 11
-318.5458249492
 21
-295.1347833967
 31
0.0
  0
LINE
  5
26B
330
1F
100
AcDbEntity
  8
0
  6
Continuous
 62
     7
370
    25
100
AcDbLine
 10
-318.4496905974
 20
-298.1234032977
 30
0.0
 11
-318.7868538203
 21
-223.647958903
 31
0.0
  0
LINE
  5
26C
330
1F
100
AcDbEntity
  8
0
  6
Continuous
 62
     7
370
    25
100
AcDbLine
 10
-408.3313488953
 20
-316.929945652
 30
0.0
 11
-408.4151015823
 21
-316.6762918766
 31
0.0
  0
LINE
  5
26D
330
1F
100
AcDbEntity
  8
0
  6
Continuous
 62
     7
370
    25
100
AcDbLine
 10
-405.4151505293
 20
-316.9099389349
 30
0.0
 11
-408.3313488953
 21
-316.929945652
 31
0.0
  0
LINE
  5
26E
330
1F
100
AcDbEntity
  8
0
  6
Continuous
 62
     7
370
    25
100
AcDbLine
 10
-389.4336758813
 20
-295.8753412231
 30
0.0
 11
-389.5174285682
 21
-295.6216874477
 31
0.0
  0
LINE
  5
26F
330
1F
100
AcDbEntity
  8
0
  6
Continuous
 62
     7
370
    25
100
AcDbLine
 10
-389.4336758813
 20
-295.8753412231
 30
0.0
 11
-389.4212942164
 21
-298.6103073487
 31
0.0
  0
LINE
  5
270
330
1F
100
AcDbEntity
  8
0
  6
Continuous
 62
     7
370
    25
100
AcDbLine
 10
-591.2516938106
 20
-337.8591805539
 30
0.0
 11
-591.2968023603
 21
-327.8952252388
 31
0.0
  0
LINE
  5
271
330
1F
100
AcDbEntity
  8
0
  6
Continuous
 62
     7
370
    25
100
AcDbLine
 10
-591.2968023603
 20
-327.8952252388
 30
0.0
 11
-588.2980022074
 21
-327.8746518282
 31
0.0
  0
LINE
  5
272
330
1F
100
AcDbEntity
  8
0
  6
Continuous
 62
     7
370
    25
100
AcDbLine
 10
-588.2980022074
 20
-327.8746518282
 30
0.0
 11
-588.5731643607
 21
-267.0945244058
 31
0.0
  0
LINE
  5
273
330
1F
100
AcDbEntity
  8
0
  6
Continuous
 62
     7
370
    25
100
AcDbLine
 10
-588.5731643607
 20
-267.0945244058
 30
0.0
 11
-591.5719645136
 21
-267.1150978164
 31
0.0
  0
LINE
  5
274
330
1F
100
AcDbEntity
  8
0
  6
Continuous
 62
     7
370
    25
100
AcDbLine
 10
-591.5719645136
 20
-267.1150978164
 30
0.0
 11
-591.6170730633
 21
-257.1511425012
 31
0.0
  0
LINE
  5
275
330
1F
100
AcDbEntity
  8
0
  6
Continuous
 62
     7
370
    25
100
AcDbLine
 10
-591.6170730633
 20
-257.1511425012
 30
0.0
 11
-588.6182729104
 21
-257.1305690906
 31
0.0
  0
LINE
  5
276
330
1F
100
AcDbEntity
  8
0
  6
Continuous
 62
     7
370
    25
100
AcDbLine
 10
-588.6182729104
 20
-257.1305690906
 30
0.0
 11
-588.6543597502
 21
-249.1594048385
 31
0.0
  0
LINE
  5
277
330
1F
100
AcDbEntity
  8
0
  6
Continuous
 62
     7
370
    25
100
AcDbLine
 10
-588.6543597502
 20
-249.1594048385
 30
0.0
 11
-583.6563594953
 21
-249.1251158208
 31
0.0
  0
LINE
  5
278
330
1F
100
AcDbEntity
  8
0
  6
Continuous
 62
     7
370
    25
100
AcDbLine
 10
-583.6563594953
 20
-249.1251158208
 30
0.0
 11
-583.6698920602
 21
-246.1359292263
 31
0.0
  0
LINE
  5
279
330
1F
100
AcDbEntity
  8
0
  6
Continuous
 62
     7
370
    25
100
AcDbLine
 10
-588.6678923151
 20
-246.170218244
 30
0.0
 11
-558.6798907859
 21
-245.9644841379
 31
0.0
  0
LINE
  5
27A
330
1F
100
AcDbEntity
  8
0
  6
Continuous
 62
     7
370
    25
100
AcDbLine
 10
-573.6738915505
 20
-246.0673511909
 30
0.0
 11
-573.6603589856
 21
-249.0565377855
 31
0.0
  0
LINE
  5
27B
330
1F
100
AcDbEntity
  8
0
  6
Continuous
 62
     7
370
    25
100
AcDbLine
 10
-573.6603589856
 20
-249.0565377855
 30
0.0
 11
-510.1857557489
 21
-248.621067261
 31
0.0
  0
LINE
  5
27C
330
1F
100
AcDbEntity
  8
0
  6
Continuous
 62
     7
370
    25
100
AcDbLine
 10
-510.1857557489
 20
-248.621067261
 30
0.0
 11
-510.1992883138
 21
-245.6318806664
 31
0.0
  0
LINE
  5
27D
330
1F
100
AcDbEntity
  8
0
  6
Continuous
 62
     7
370
    25
100
AcDbLine
 10
-468.7158861985
 20
-245.3472818197
 30
0.0
 11
-528.6918892568
 21
-245.7587500318
 31
0.0
  0
LINE
  5
27E
330
1F
100
AcDbEntity
  8
0
  6
Continuous
 62
     7
370
    25
100
AcDbLine
 10
-490.2072872944
 20
-245.4947245957
 30
0.0
 11
-490.1937547295
 21
-248.4839111903
 31
0.0
  0
LINE
  5
27F
330
1F
100
AcDbEntity
  8
0
  6
Continuous
 62
     7
370
    25
100
AcDbLine
 10
-490.1937547295
 20
-248.4839111903
 30
0.0
 11
-429.7179516457
 21
-248.0690140764
 31
0.0
  0
LINE
  5
280
330
1F
100
AcDbEntity
  8
0
  6
Continuous
 62
     7
370
    25
100
AcDbLine
 10
-429.7179516457
 20
-248.0690140764
 30
0.0
 11
-429.7314842106
 21
-245.0798274818
 31
0.0
  0
LINE
  5
281
330
1F
100
AcDbEntity
  8
0
  6
Continuous
 62
     7
370
    25
100
AcDbLine
 10
-408.7398831402
 20
-244.9358136076
 30
0.0
 11
-438.7278846694
 21
-245.1415477136
 31
0.0
  0
LINE
  5
282
330
1F
100
AcDbEntity
  8
0
  6
Continuous
 62
     7
370
    25
100
AcDbLine
 10
-419.7354837009
 20
-245.0112494465
 30
0.0
 11
-419.721951136
 21
-248.000436041
 31
0.0
  0
LINE
  5
283
330
1F
100
AcDbEntity
  8
0
  6
Continuous
 62
     7
370
    25
100
AcDbLine
 10
-419.721951136
 20
-248.000436041
 30
0.0
 11
-411.7251507282
 21
-247.9455736127
 31
0.0
  0
LINE
  5
284
330
1F
100
AcDbEntity
  8
0
  6
Continuous
 62
     7
370
    25
100
AcDbLine
 10
-411.7251507282
 20
-247.9455736127
 30
0.0
 11
-411.6890638884
 21
-255.9167378649
 31
0.0
  0
LINE
  5
285
330
1F
100
AcDbEntity
  8
0
  6
Continuous
 62
     7
370
    25
100
AcDbLine
 10
-411.6890638884
 20
-255.9167378649
 30
0.0
 11
-408.6902637355
 21
-255.8961644542
 31
0.0
  0
LINE
  5
286
330
1F
100
AcDbEntity
  8
0
  6
Continuous
 62
     7
370
    25
100
AcDbLine
 10
-408.6451551858
 20
-265.8601197694
 30
0.0
 11
-411.6439553387
 21
-265.88069318
 31
0.0
  0
LINE
  5
287
330
1F
100
AcDbEntity
  8
0
  6
Continuous
 62
     7
370
    25
100
AcDbLine
 10
-411.6439553387
 20
-265.88069318
 30
0.0
 11
-411.3687931855
 21
-326.6608206024
 31
0.0
  0
LINE
  5
288
330
1F
100
AcDbEntity
  8
0
  6
Continuous
 62
     7
370
    25
100
AcDbLine
 10
-411.3687931855
 20
-326.6608206024
 30
0.0
 11
-408.3699930326
 21
-326.6402471918
 31
0.0
  0
LINE
  5
289
330
1F
100
AcDbEntity
  8
0
  6
Continuous
 62
     7
370
    25
100
AcDbLine
 10
-408.3699930326
 20
-326.6402471918
 30
0.0
 11
-408.3248844828
 21
-336.6042025069
 31
0.0
  0
LINE
  5
28A
330
1F
100
AcDbEntity
  8
0
  6
Continuous
 62
     7
370
    25
100
AcDbLine
 10
-408.3248844828
 20
-336.6042025069
 30
0.0
 11
-411.3236846358
 21
-336.6247759176
 31
0.0
  0
LINE
  5
28B
330
1F
100
AcDbEntity
  8
0
  6
Continuous
 62
     7
370
    25
100
AcDbLine
 10
-411.3236846358
 20
-336.6247759176
 30
0.0
 11
-411.0485224825
 21
-397.40490334
 31
0.0
  0
LINE
  5
28C
330
1F
100
AcDbEntity
  8
0
  6
Continuous
 62
     7
370
    25
100
AcDbLine
 10
-411.0034139328
 20
-407.3688586551
 30
0.0
 11
-410.967327093
 21
-415.3400229072
 31
0.0
  0
LINE
  5
28D
330
1F
100
AcDbEntity
  8
0
  6
Continuous
 62
     7
370
    25
100
AcDbLine
 10
-410.967327093
 20
-415.3400229072
 30
0.0
 11
-418.9641275008
 21
-415.3948853355
 31
0.0
  0
LINE
  5
28E
330
1F
100
AcDbEntity
  8
0
  6
Continuous
 62
     7
370
    25
100
AcDbLine
 10
-418.9641275008
 20
-415.3948853355
 30
0.0
 11
-418.9505949359
 21
-418.38407193
 31
0.0
  0
LINE
  5
28F
330
1F
100
AcDbEntity
  8
0
  6
Continuous
 62
     7
370
    25
100
AcDbLine
 10
-418.9505949359
 20
-418.38407193
 30
0.0
 11
-428.9465954456
 21
-418.4526499654
 31
0.0
  0
LINE
  5
290
330
1F
100
AcDbEntity
  8
0
  6
Continuous
 62
     7
370
    25
100
AcDbLine
 10
-428.9465954456
 20
-418.4526499654
 30
0.0
 11
-428.9601280105
 21
-415.4634633709
 31
0.0
  0
LINE
  5
291
330
1F
100
AcDbEntity
  8
0
  6
Continuous
 62
     7
370
    25
100
AcDbLine
 10
-428.9601280105
 20
-415.4634633709
 30
0.0
 11
-489.4359310943
 21
-415.8783604847
 31
0.0
  0
LINE
  5
292
330
1F
100
AcDbEntity
  8
0
  6
Continuous
 62
     7
370
    25
100
AcDbLine
 10
-489.4359310943
 20
-415.8783604847
 30
0.0
 11
-489.4223985294
 21
-418.8675470793
 31
0.0
  0
LINE
  5
293
330
1F
100
AcDbEntity
  8
0
  6
Continuous
 62
     7
370
    25
100
AcDbLine
 10
-489.4223985294
 20
-418.8675470793
 30
0.0
 11
-509.4143995488
 21
-419.00470315
 31
0.0
  0
LINE
  5
294
330
1F
100
AcDbEntity
  8
0
  6
Continuous
 62
     7
370
    25
100
AcDbLine
 10
-509.4143995488
 20
-419.00470315
 30
0.0
 11
-509.4279321137
 21
-416.0155165555
 31
0.0
  0
LINE
  5
295
330
1F
100
AcDbEntity
  8
0
  6
Continuous
 62
     7
370
    25
100
AcDbLine
 10
-509.4279321137
 20
-416.0155165555
 30
0.0
 11
-572.9025353504
 21
-416.4509870799
 31
0.0
  0
LINE
  5
296
330
1F
100
AcDbEntity
  8
0
  6
Continuous
 62
     7
370
    25
100
AcDbLine
 10
-572.9025353504
 20
-416.4509870799
 30
0.0
 11
-572.8890027855
 21
-419.4401736745
 31
0.0
  0
LINE
  5
297
330
1F
100
AcDbEntity
  8
0
  6
Continuous
 62
     7
370
    25
100
AcDbLine
 10
-572.8890027855
 20
-419.4401736745
 30
0.0
 11
-582.8850032952
 21
-419.5087517098
 31
0.0
  0
LINE
  5
298
330
1F
100
AcDbEntity
  8
0
  6
Continuous
 62
     7
370
    25
100
AcDbLine
 10
-582.8850032952
 20
-419.5087517098
 30
0.0
 11
-582.8985358601
 21
-416.5195651153
 31
0.0
  0
LINE
  5
299
330
1F
100
AcDbEntity
  8
0
  6
Continuous
 62
     7
370
    25
100
AcDbLine
 10
-582.8985358601
 20
-416.5195651153
 30
0.0
 11
-587.896536115
 21
-416.553854133
 31
0.0
  0
LINE
  5
29A
330
1F
100
AcDbEntity
  8
0
  6
Continuous
 62
     7
370
    25
100
AcDbLine
 10
-587.896536115
 20
-416.553854133
 30
0.0
 11
-587.9326229547
 21
-408.5826898809
 31
0.0
  0
LINE
  5
29B
330
1F
100
AcDbEntity
  8
0
  6
Continuous
 62
     7
370
    25
100
AcDbLine
 10
-587.9326229547
 20
-408.5826898809
 30
0.0
 11
-590.9314231076
 21
-408.6032632915
 31
0.0
  0
LINE
  5
29C
330
1F
100
AcDbEntity
  8
0
  6
Continuous
 62
     7
370
    25
100
AcDbLine
 10
-590.9314231076
 20
-408.6032632915
 30
0.0
 11
-590.9765316574
 21
-398.6393079763
 31
0.0
  0
LINE
  5
29D
330
1F
100
AcDbEntity
  8
0
  6
Continuous
 62
     7
370
    25
100
AcDbLine
 10
-590.9765316574
 20
-398.6393079763
 30
0.0
 11
-587.9777315044
 21
-398.6187345657
 31
0.0
  0
LINE
  5
29E
330
1F
100
AcDbEntity
  8
0
  6
Continuous
 62
     7
370
    25
100
AcDbLine
 10
-587.9777315044
 20
-398.6187345657
 30
0.0
 11
-588.2528936577
 21
-337.8386071433
 31
0.0
  0
LINE
  5
29F
330
1F
100
AcDbEntity
  8
0
  6
Continuous
 62
     7
370
    25
100
AcDbLine
 10
-588.2528936577
 20
-337.8386071433
 30
0.0
 11
-591.2516938106
 21
-337.8591805539
 31
0.0
  0
LINE
  5
2A0
330
1F
100
AcDbEntity
  8
0
  6
Continuous
 62
     7
370
    25
100
AcDbLine
 10
-418.8668422489
 20
-418.6377257054
 30
0.0
 11
-418.9505949359
 21
-418.38407193
 31
0.0
  0
LINE
  5
2A1
330
1F
100
AcDbEntity
  8
0
  6
Continuous
 62
     7
370
    25
100
AcDbLine
 10
-418.8668422489
 20
-418.6377257054
 30
0.0
 11
-428.8628427587
 21
-418.7063037408
 31
0.0
  0
LINE
  5
2A2
330
1F
100
AcDbEntity
  8
0
  6
Continuous
 62
     7
370
    25
100
AcDbLine
 10
-428.8628427587
 20
-418.7063037408
 30
0.0
 11
-428.9465954456
 21
-418.4526499654
 31
0.0
  0
LINE
  5
2A3
330
1F
100
AcDbEntity
  8
0
  6
Continuous
 62
     7
370
    25
100
AcDbLine
 10
-418.8803748139
 20
-415.6485391109
 30
0.0
 11
-418.9641275008
 21
-415.3948853355
 31
0.0
  0
LINE
  5
2A4
330
1F
100
AcDbEntity
  8
0
  6
Continuous
 62
     7
370
    25
100
AcDbLine
 10
-418.8803748139
 20
-415.6485391109
 30
0.0
 11
-418.8668422489
 21
-418.6377257054
 31
0.0
  0
LINE
  5
2A5
330
1F
100
AcDbEntity
  8
0
  6
Continuous
 62
     7
370
    25
100
AcDbLine
 10
-410.8835744061
 20
-415.5936766826
 30
0.0
 11
-410.967327093
 21
-415.3400229072
 31
0.0
  0
LINE
  5
2A6
330
1F
100
AcDbEntity
  8
0
  6
Continuous
 62
     7
370
    25
100
AcDbLine
 10
-410.8835744061
 20
-415.5936766826
 30
0.0
 11
-418.8803748139
 21
-415.6485391109
 31
0.0
  0
LINE
  5
2A7
330
1F
100
AcDbEntity
  8
0
  6
Continuous
 62
     7
370
    25
100
AcDbLine
 10
-410.9196612459
 20
-407.6225124305
 30
0.0
 11
-411.0034139328
 21
-407.3688586551
 31
0.0
  0
LINE
  5
2A8
330
1F
100
AcDbEntity
  8
0
  6
Continuous
 62
     7
370
    25
100
AcDbLine
 10
-410.9196612459
 20
-407.6225124305
 30
0.0
 11
-410.8835744061
 21
-415.5936766826
 31
0.0
  0
LINE
  5
2A9
330
1F
100
AcDbEntity
  8
0
  6
Continuous
 62
     7
370
    25
100
AcDbLine
 10
-428.9589771104
 20
-415.7176838397
 30
0.0
 11
-489.3521784073
 21
-416.1320142601
 31
0.0
  0
LINE
  5
2AA
330
1F
100
AcDbEntity
  8
0
  6
Continuous
 62
     7
370
    25
100
AcDbLine
 10
-489.3521784073
 20
-416.1320142601
 30
0.0
 11
-489.4359310943
 21
-415.8783604847
 31
0.0
  0
LINE
  5
2AB
330
1F
100
AcDbEntity
  8
0
  6
Continuous
 62
     7
370
    25
100
AcDbLine
 10
-411.2399319488
 20
-336.8784296929
 30
0.0
 11
-411.3236846358
 21
-336.6247759176
 31
0.0
  0
LINE
  5
2AC
330
1F
100
AcDbEntity
  8
0
  6
Continuous
 62
     7
370
    25
100
AcDbLine
 10
-411.2399319488
 20
-336.8784296929
 30
0.0
 11
-410.9659206956
 21
-397.4043366465
 31
0.0
  0
LINE
  5
2AD
330
1F
100
AcDbEntity
  8
0
  6
Continuous
 62
     7
370
    25
100
AcDbLine
 10
-489.3386458424
 20
-419.1212008547
 30
0.0
 11
-489.4223985294
 21
-418.8675470793
 31
0.0
  0
LINE
  5
2AE
330
1F
100
AcDbEntity
  8
0
  6
Continuous
 62
     7
370
    25
100
AcDbLine
 10
-489.3386458424
 20
-419.1212008547
 30
0.0
 11
-509.3306468619
 21
-419.2583569254
 31
0.0
  0
LINE
  5
2AF
330
1F
100
AcDbEntity
  8
0
  6
Continuous
 62
     7
370
    25
100
AcDbLine
 10
-509.3306468619
 20
-419.2583569254
 30
0.0
 11
-509.4143995488
 21
-419.00470315
 31
0.0
  0
LINE
  5
2B0
330
1F
100
AcDbEntity
  8
0
  6
Continuous
 62
     7
370
    25
100
AcDbLine
 10
-489.3521784073
 20
-416.1320142601
 30
0.0
 11
-489.3386458424
 21
-419.1212008547
 31
0.0
  0
LINE
  5
2B1
330
1F
100
AcDbEntity
  8
0
  6
Continuous
 62
     7
370
    25
100
AcDbLine
 10
-572.8187826635
 20
-416.7046408553
 30
0.0
 11
-572.9025353504
 21
-416.4509870799
 31
0.0
  0
LINE
  5
2B2
330
1F
100
AcDbEntity
  8
0
  6
Continuous
 62
     7
370
    25
100
AcDbLine
 10
-509.4267812136
 20
-416.2697370243
 30
0.0
 11
-572.8187826635
 21
-416.7046408553
 31
0.0
  0
LINE
  5
2B3
330
1F
100
AcDbEntity
  8
0
  6
Continuous
 62
     7
370
    25
100
AcDbLine
 10
-572.8052500985
 20
-419.6938274499
 30
0.0
 11
-572.8890027855
 21
-419.4401736745
 31
0.0
  0
LINE
  5
2B4
330
1F
100
AcDbEntity
  8
0
  6
Continuous
 62
     7
370
    25
100
AcDbLine
 10
-572.8187826635
 20
-416.7046408553
 30
0.0
 11
-572.8052500985
 21
-419.6938274499
 31
0.0
  0
LINE
  5
2B5
330
1F
100
AcDbEntity
  8
0
  6
Continuous
 62
     7
370
    25
100
AcDbLine
 10
-582.8012506083
 20
-419.7624054852
 30
0.0
 11
-582.8850032952
 21
-419.5087517098
 31
0.0
  0
LINE
  5
2B6
330
1F
100
AcDbEntity
  8
0
  6
Continuous
 62
     7
370
    25
100
AcDbLine
 10
-572.8052500985
 20
-419.6938274499
 30
0.0
 11
-582.8012506083
 21
-419.7624054852
 31
0.0
  0
LINE
  5
2B7
330
1F
100
AcDbEntity
  8
0
  6
Continuous
 62
     7
370
    25
100
AcDbLine
 10
-587.812783428
 20
-416.8075079084
 30
0.0
 11
-587.896536115
 21
-416.553854133
 31
0.0
  0
LINE
  5
2B8
330
1F
100
AcDbEntity
  8
0
  6
Continuous
 62
     7
370
    25
100
AcDbLine
 10
-582.89738496
 20
-416.7737855842
 30
0.0
 11
-587.812783428
 21
-416.8075079084
 31
0.0
  0
LINE
  5
2B9
330
1F
100
AcDbEntity
  8
0
  6
Continuous
 62
     7
370
    25
100
AcDbLine
 10
-590.8476704207
 20
-408.8569170669
 30
0.0
 11
-590.9314231076
 21
-408.6032632915
 31
0.0
  0
LINE
  5
2BA
330
1F
100
AcDbEntity
  8
0
  6
Continuous
 62
     7
370
    25
100
AcDbLine
 10
-587.9314720547
 20
-408.8369103497
 30
0.0
 11
-590.8476704207
 21
-408.8569170669
 31
0.0
  0
LINE
  5
2BB
330
1F
100
AcDbEntity
  8
0
  6
Continuous
 62
     7
370
    25
100
AcDbLine
 10
-408.2411317959
 20
-336.8578562823
 30
0.0
 11
-408.3248844828
 21
-336.6042025069
 31
0.0
  0
LINE
  5
2BC
330
1F
100
AcDbEntity
  8
0
  6
Continuous
 62
     7
370
    25
100
AcDbLine
 10
-408.2411317959
 20
-336.8578562823
 30
0.0
 11
-411.2399319488
 21
-336.8784296929
 31
0.0
  0
LINE
  5
2BD
330
1F
100
AcDbEntity
  8
0
  6
Continuous
 62
     7
370
    25
100
AcDbLine
 10
-408.2862403456
 20
-326.8939009672
 30
0.0
 11
-408.3699930326
 21
-326.6402471918
 31
0.0
  0
LINE
  5
2BE
330
1F
100
AcDbEntity
  8
0
  6
Continuous
 62
     7
370
    25
100
AcDbLine
 10
-408.2862403456
 20
-326.8939009672
 30
0.0
 11
-408.2411317959
 21
-336.8578562823
 31
0.0
  0
LINE
  5
2BF
330
1F
100
AcDbEntity
  8
0
  6
Continuous
 62
     7
370
    25
100
AcDbLine
 10
-411.5602026518
 20
-266.1343469554
 30
0.0
 11
-411.6439553387
 21
-265.88069318
 31
0.0
  0
LINE
  5
2C0
330
1F
100
AcDbEntity
  8
0
  6
Continuous
 62
     7
370
    25
100
AcDbLine
 10
-411.5602026518
 20
-266.1343469554
 30
0.0
 11
-411.2861913986
 21
-326.6602539089
 31
0.0
  0
LINE
  5
2C1
330
1F
100
AcDbEntity
  8
0
  6
Continuous
 62
     7
370
    25
100
AcDbLine
 10
-591.1679411237
 20
-338.1128343293
 30
0.0
 11
-591.2516938106
 21
-337.8591805539
 31
0.0
  0
LINE
  5
2C2
330
1F
100
AcDbEntity
  8
0
  6
Continuous
 62
     7
370
    25
100
AcDbLine
 10
-588.2517427577
 20
-338.0928276122
 30
0.0
 11
-591.1679411237
 21
-338.1128343293
 31
0.0
  0
LINE
  5
2C3
330
1F
100
AcDbEntity
  8
0
  6
Continuous
 62
     7
370
    25
100
AcDbLine
 10
-408.6440042858
 20
-266.1143402383
 30
0.0
 11
-411.5602026518
 21
-266.1343469554
 31
0.0
  0
LINE
  5
2C4
330
1F
100
AcDbEntity
  8
0
  6
Continuous
 62
     7
370
    25
100
AcDbLine
 10
-411.6413980413
 20
-248.1992273881
 30
0.0
 11
-411.7251507282
 21
-247.9455736127
 31
0.0
  0
LINE
  5
2C5
330
1F
100
AcDbEntity
  8
0
  6
Continuous
 62
     7
370
    25
100
AcDbLine
 10
-411.6413980413
 20
-248.1992273881
 30
0.0
 11
-411.6064621016
 21
-255.9161711714
 31
0.0
  0
LINE
  5
2C6
330
1F
100
AcDbEntity
  8
0
  6
Continuous
 62
     7
370
    25
100
AcDbLine
 10
-419.651731014
 20
-245.2649032219
 30
0.0
 11
-419.7354837009
 21
-245.0112494465
 31
0.0
  0
LINE
  5
2C7
330
1F
100
AcDbEntity
  8
0
  6
Continuous
 62
     7
370
    25
100
AcDbLine
 10
-419.651731014
 20
-245.2649032219
 30
0.0
 11
-419.6393493491
 21
-247.9998693475
 31
0.0
  0
LINE
  5
2C8
330
1F
100
AcDbEntity
  8
0
  6
Continuous
 62
     7
370
    25
100
AcDbLine
 10
-490.1235346075
 20
-245.7483783711
 30
0.0
 11
-490.2072872944
 21
-245.4947245957
 31
0.0
  0
LINE
  5
2C9
330
1F
100
AcDbEntity
  8
0
  6
Continuous
 62
     7
370
    25
100
AcDbLine
 10
-490.1235346075
 20
-245.7483783711
 30
0.0
 11
-490.1111529426
 21
-248.4833444968
 31
0.0
  0
LINE
  5
2CA
330
1F
100
AcDbEntity
  8
0
  6
Continuous
 62
     7
370
    25
100
AcDbLine
 10
-591.4882118267
 20
-267.3687515918
 30
0.0
 11
-591.5719645136
 21
-267.1150978164
 31
0.0
  0
LINE
  5
2CB
330
1F
100
AcDbEntity
  8
0
  6
Continuous
 62
     7
370
    25
100
AcDbLine
 10
-588.5720134606
 20
-267.3487448746
 30
0.0
 11
-591.4882118267
 21
-267.3687515918
 31
0.0
  0
LINE
  5
2CC
330
1F
100
AcDbEntity
  8
0
  6
Continuous
 62
     7
370
    25
100
AcDbLine
 10
-573.5901388636
 20
-246.3210049663
 30
0.0
 11
-573.6738915505
 21
-246.0673511909
 31
0.0
  0
LINE
  5
2CD
330
1F
100
AcDbEntity
  8
0
  6
Continuous
 62
     7
370
    25
100
AcDbLine
 10
-573.5901388636
 20
-246.3210049663
 30
0.0
 11
-573.5777571987
 21
-249.055971092
 31
0.0
  0
LINE
  5
2CE
330
1F
100
AcDbEntity
  8
0
  6
Continuous
 62
     7
370
    25
100
AcDbLine
 10
-363.6902180219
 20
-259.5731454212
 30
0.0
 11
-338.7002167476
 21
-259.4017003328
 31
0.0
  0
LINE
  5
2CF
330
1F
100
AcDbEntity
  8
0
  6
Continuous
 62
     7
370
    25
100
AcDbLine
 10
-338.7002167476
 20
-259.4017003328
 30
0.0
 11
-339.0159765957
 21
-189.6540131268
 31
0.0
  0
LINE
  5
2D0
330
1F
100
AcDbEntity
  8
0
  6
Continuous
 62
     7
370
    25
100
AcDbLine
 10
-339.0159765957
 20
-189.6540131268
 30
0.0
 11
-364.0059778699
 21
-189.8254582152
 31
0.0
  0
LINE
  5
2D1
330
1F
100
AcDbEntity
  8
0
  6
Continuous
 62
     7
370
    25
100
AcDbLine
 10
-364.0059778699
 20
-189.8254582152
 30
0.0
 11
-363.6902180219
 21
-259.5731454212
 31
0.0
  0
LINE
  5
2D2
330
1F
100
AcDbEntity
  8
0
  6
Continuous
 62
     7
370
    25
100
AcDbLine
 10
-320.0055322073
 20
-193.5092969857
 30
0.0
 11
-319.0059321563
 21
-193.5024391822
 31
0.0
  0
LINE
  5
2D3
330
1F
100
AcDbEntity
  8
0
  6
Continuous
 62
     7
370
    25
100
AcDbLine
 10
-319.8702065582
 20
-223.4011629311
 30
0.0
 11
-320.0055322073
 21
-193.5092969857
 31
0.0
  0
LINE
  5
2D4
330
1F
100
AcDbEntity
  8
0
  6
Continuous
 62
     7
370
    25
100
AcDbLine
 10
-318.8706065072
 20
-223.3943051276
 30
0.0
 11
-319.8702065582
 21
-223.4011629311
 31
0.0
  0
LINE
  5
2D5
330
1F
100
AcDbEntity
  8
0
  6
Continuous
 62
     7
370
    25
100
AcDbLine
 10
-348.5473590433
 20
-292.3513309082
 30
0.0
 11
-348.5338264784
 21
-295.3405175027
 31
0.0
  0
LINE
  5
2D6
330
1F
100
AcDbEntity
  8
0
  6
Continuous
 62
     7
370
    25
100
AcDbLine
 10
-378.5353605724
 20
-292.5570650142
 30
0.0
 11
-348.5473590433
 21
-292.3513309082
 31
0.0
  0
LINE
  5
2D7
330
1F
100
AcDbEntity
  8
0
  6
Continuous
 62
     7
370
    25
100
AcDbLine
 10
-378.5218280075
 20
-295.5462516088
 30
0.0
 11
-378.5353605724
 21
-292.5570650142
 31
0.0
  0
LINE
  5
2D8
330
1F
100
AcDbEntity
  8
0
  6
Continuous
 62
     7
370
    25
100
AcDbLine
 10
-408.5594489414
 20
-284.7916348682
 30
0.0
 11
-408.5098295367
 21
-295.7519857148
 31
0.0
  0
LINE
  5
2D9
330
1F
100
AcDbEntity
  8
0
  6
Continuous
 62
     7
370
    25
100
AcDbLine
 10
-405.5606487884
 20
-284.7710614576
 30
0.0
 11
-408.5594489414
 21
-284.7916348682
 31
0.0
  0
LINE
  5
2DA
330
1F
100
AcDbEntity
  8
0
  6
Continuous
 62
     7
370
    25
100
AcDbLine
 10
-405.6057573382
 20
-274.8071061424
 30
0.0
 11
-405.5606487884
 21
-284.7710614576
 31
0.0
  0
LINE
  5
2DB
330
1F
100
AcDbEntity
  8
0
  6
Continuous
 62
     7
370
    25
100
AcDbLine
 10
-408.6045574911
 20
-274.827679553
 30
0.0
 11
-405.6057573382
 21
-274.8071061424
 31
0.0
  0
LINE
  5
2DC
330
1F
100
AcDbEntity
  8
0
  6
Continuous
 62
     7
370
    25
100
AcDbLine
 10
-405.8809194914
 20
-214.02697872
 30
0.0
 11
-408.8797196443
 21
-214.0475521306
 31
0.0
  0
LINE
  5
2DD
330
1F
100
AcDbEntity
  8
0
  6
Continuous
 62
     7
370
    25
100
AcDbLine
 10
-405.9260280411
 20
-204.0630234049
 30
0.0
 11
-405.8809194914
 21
-214.02697872
 31
0.0
  0
LINE
  5
2DE
330
1F
100
AcDbEntity
  8
0
  6
Continuous
 62
     7
370
    25
100
AcDbLine
 10
-408.924828194
 20
-204.0835968155
 30
0.0
 11
-405.9260280411
 21
-204.0630234049
 31
0.0
  0
LINE
  5
2DF
330
1F
100
AcDbEntity
  8
0
  6
Continuous
 62
     7
370
    25
100
AcDbLine
 10
-409.1999903473
 20
-143.3034693931
 30
0.0
 11
-408.6045574911
 21
-274.827679553
 31
0.0
  0
LINE
  5
2E0
330
1F
100
AcDbEntity
  8
0
  6
Continuous
 62
     7
370
    25
100
AcDbLine
 10
-406.2011901944
 20
-143.2828959825
 30
0.0
 11
-409.1999903473
 21
-143.3034693931
 31
0.0
  0
LINE
  5
2E1
330
1F
100
AcDbEntity
  8
0
  6
Continuous
 62
     7
370
    25
100
AcDbLine
 10
-406.2462987441
 20
-133.3189406673
 30
0.0
 11
-406.2011901944
 21
-143.2828959825
 31
0.0
  0
LINE
  5
2E2
330
1F
100
AcDbEntity
  8
0
  6
Continuous
 62
     7
370
    25
100
AcDbLine
 10
-409.245098897
 20
-133.3395140779
 30
0.0
 11
-406.2462987441
 21
-133.3189406673
 31
0.0
  0
LINE
  5
2E3
330
1F
100
AcDbEntity
  8
0
  6
Continuous
 62
     7
370
    25
100
AcDbLine
 10
-409.2067566298
 20
-141.8088760958
 30
0.0
 11
-409.8360208983
 21
-2.8116994495
 31
0.0
  0
LINE
  5
2E4
330
1F
100
AcDbEntity
  8
0
  6
Continuous
 62
     7
370
    25
100
AcDbLine
 10
-379.3067167726
 20
-122.1734291252
 30
0.0
 11
-409.2947183017
 21
-122.3791632313
 31
0.0
  0
LINE
  5
2E5
330
1F
100
AcDbEntity
  8
0
  6
Continuous
 62
     7
370
    25
100
AcDbLine
 10
-379.2931842077
 20
-125.1626157198
 30
0.0
 11
-379.3067167726
 21
-122.1734291252
 31
0.0
  0
LINE
  5
2E6
330
1F
100
AcDbEntity
  8
0
  6
Continuous
 62
     7
370
    25
100
AcDbLine
 10
-349.3051826785
 20
-124.9568816137
 30
0.0
 11
-379.2931842077
 21
-125.1626157198
 31
0.0
  0
LINE
  5
2E7
330
1F
100
AcDbEntity
  8
0
  6
Continuous
 62
     7
370
    25
100
AcDbLine
 10
-349.3187152434
 20
-121.9676950191
 30
0.0
 11
-349.3051826785
 21
-124.9568816137
 31
0.0
  0
LINE
  5
2E8
330
1F
100
AcDbEntity
  8
0
  6
Continuous
 62
     7
370
    25
100
AcDbLine
 10
-319.3307137143
 20
-121.7619609131
 30
0.0
 11
-349.3187152434
 21
-121.9676950191
 31
0.0
  0
LINE
  5
2E9
330
1F
100
AcDbEntity
  8
0
  6
Continuous
 62
     7
370
    25
100
AcDbLine
 10
-319.0059321563
 20
-193.5024391822
 30
0.0
 11
-319.3668005541
 21
-113.790796661
 31
0.0
  0
LINE
  5
2EA
330
1F
100
AcDbEntity
  8
0
  6
Continuous
 62
     7
370
    25
100
AcDbLine
 10
-318.8706065072
 20
-223.3943051276
 30
0.0
 11
-318.7868538203
 21
-223.647958903
 31
0.0
  0
LINE
  5
2EB
330
1F
100
AcDbEntity
  8
0
  6
Continuous
 62
     7
370
    25
100
AcDbLine
 10
-348.5338264784
 20
-295.3405175027
 30
0.0
 11
-348.4500737915
 21
-295.5941712781
 31
0.0
  0
LINE
  5
2EC
330
1F
100
AcDbEntity
  8
0
  6
Continuous
 62
     7
370
    25
100
AcDbLine
 10
-348.4500737915
 20
-295.5941712781
 30
0.0
 11
-328.5406745589
 21
-295.4575819009
 31
0.0
  0
LINE
  5
2ED
330
1F
100
AcDbEntity
  8
0
  6
Continuous
 62
     7
370
    25
100
AcDbLine
 10
-378.5353605724
 20
-292.5570650142
 30
0.0
 11
-378.4516078855
 21
-292.8107187896
 31
0.0
  0
LINE
  5
2EE
330
1F
100
AcDbEntity
  8
0
  6
Continuous
 62
     7
370
    25
100
AcDbLine
 10
-378.4516078855
 20
-292.8107187896
 30
0.0
 11
-348.5462081433
 21
-292.605551377
 31
0.0
  0
LINE
  5
2EF
330
1F
100
AcDbEntity
  8
0
  6
Continuous
 62
     7
370
    25
100
AcDbLine
 10
-378.5218280075
 20
-295.5462516088
 30
0.0
 11
-378.4380753206
 21
-295.7999053842
 31
0.0
  0
LINE
  5
2F0
330
1F
100
AcDbEntity
  8
0
  6
Continuous
 62
     7
370
    25
100
AcDbLine
 10
-378.4380753206
 20
-295.7999053842
 30
0.0
 11
-378.4516078855
 21
-292.8107187896
 31
0.0
  0
LINE
  5
2F1
330
1F
100
AcDbEntity
  8
0
  6
Continuous
 62
     7
370
    25
100
AcDbLine
 10
-408.5098295367
 20
-295.7519857148
 30
0.0
 11
-408.4260768497
 21
-296.0056394902
 31
0.0
  0
LINE
  5
2F2
330
1F
100
AcDbEntity
  8
0
  6
Continuous
 62
     7
370
    25
100
AcDbLine
 10
-408.4260768497
 20
-296.0056394902
 30
0.0
 11
-399.5122781779
 21
-295.9444859519
 31
0.0
  0
LINE
  5
2F3
330
1F
100
AcDbEntity
  8
0
  6
Continuous
 62
     7
370
    25
100
AcDbLine
 10
-389.4336758813
 20
-295.8753412231
 30
0.0
 11
-378.4380753206
 21
-295.7999053842
 31
0.0
  0
LINE
  5
2F4
330
1F
100
AcDbEntity
  8
0
  6
Continuous
 62
     7
370
    25
100
AcDbLine
 10
-408.6045574911
 20
-274.827679553
 30
0.0
 11
-408.5208048041
 21
-275.0813333284
 31
0.0
  0
LINE
  5
2F5
330
1F
100
AcDbEntity
  8
0
  6
Continuous
 62
     7
370
    25
100
AcDbLine
 10
-408.5208048041
 20
-275.0813333284
 30
0.0
 11
-405.6046064381
 21
-275.0613266113
 31
0.0
  0
LINE
  5
2F6
330
1F
100
AcDbEntity
  8
0
  6
Continuous
 62
     7
370
    25
100
AcDbLine
 10
-364.0059778699
 20
-189.8254582152
 30
0.0
 11
-363.922225183
 21
-190.0791119906
 31
0.0
  0
LINE
  5
2F7
330
1F
100
AcDbEntity
  8
0
  6
Continuous
 62
     7
370
    25
100
AcDbLine
 10
-363.922225183
 20
-190.0791119906
 30
0.0
 11
-363.6076162351
 21
-259.5725787277
 31
0.0
  0
LINE
  5
2F8
330
1F
100
AcDbEntity
  8
0
  6
Continuous
 62
     7
370
    25
100
AcDbLine
 10
-320.0055322073
 20
-193.5092969857
 30
0.0
 11
-319.9217795204
 21
-193.7629507611
 31
0.0
  0
LINE
  5
2F9
330
1F
100
AcDbEntity
  8
0
  6
Continuous
 62
     7
370
    25
100
AcDbLine
 10
-319.7876047713
 20
-223.4005962377
 30
0.0
 11
-319.9217795204
 21
-193.7629507611
 31
0.0
  0
LINE
  5
2FA
330
1F
100
AcDbEntity
  8
0
  6
Continuous
 62
     7
370
    25
100
AcDbLine
 10
-319.0059321563
 20
-193.5024391822
 30
0.0
 11
-318.9221794694
 21
-193.7560929575
 31
0.0
  0
LINE
  5
2FB
330
1F
100
AcDbEntity
  8
0
  6
Continuous
 62
     7
370
    25
100
AcDbLine
 10
-319.3307137143
 20
-121.7619609131
 30
0.0
 11
-319.2469610274
 21
-122.0156146885
 31
0.0
  0
LINE
  5
2FC
330
1F
100
AcDbEntity
  8
0
  6
Continuous
 62
     7
370
    25
100
AcDbLine
 10
-318.9221794694
 20
-193.7560929575
 30
0.0
 11
-319.2830478671
 21
-114.0444504364
 31
0.0
  0
LINE
  5
2FD
330
1F
100
AcDbEntity
  8
0
  6
Continuous
 62
     7
370
    25
100
AcDbLine
 10
-319.9217795204
 20
-193.7629507611
 30
0.0
 11
-318.9221794694
 21
-193.7560929575
 31
0.0
  0
LINE
  5
2FE
330
1F
100
AcDbEntity
  8
0
  6
Continuous
 62
     7
370
    25
100
AcDbLine
 10
-339.0148256956
 20
-189.9082335957
 30
0.0
 11
-363.922225183
 21
-190.0791119906
 31
0.0
  0
LINE
  5
2FF
330
1F
100
AcDbEntity
  8
0
  6
Continuous
 62
     7
370
    25
100
AcDbLine
 10
-408.924828194
 20
-204.0835968155
 30
0.0
 11
-408.8410755071
 21
-204.3372505909
 31
0.0
  0
LINE
  5
300
330
1F
100
AcDbEntity
  8
0
  6
Continuous
 62
     7
370
    25
100
AcDbLine
 10
-408.8410755071
 20
-204.3372505909
 30
0.0
 11
-405.9248771411
 21
-204.3172438737
 31
0.0
  0
LINE
  5
301
330
1F
100
AcDbEntity
  8
0
  6
Continuous
 62
     7
370
    25
100
AcDbLine
 10
-409.245098897
 20
-133.3395140779
 30
0.0
 11
-409.1613462101
 21
-133.5931678533
 31
0.0
  0
LINE
  5
302
330
1F
100
AcDbEntity
  8
0
  6
Continuous
 62
     7
370
    25
100
AcDbLine
 10
-409.1613462101
 20
-133.5931678533
 30
0.0
 11
-406.2451478441
 21
-133.5731611362
 31
0.0
  0
LINE
  5
303
330
1F
100
AcDbEntity
  8
0
  6
Continuous
 62
     7
370
    25
100
AcDbLine
 10
-359.6079213263
 20
-57.270563506
 30
0.0
 11
-380.5995223967
 21
-57.4145773803
 31
0.0
  0
LINE
  5
304
330
1F
100
AcDbEntity
  8
0
  6
Continuous
 62
     7
370
    25
100
AcDbLine
 10
-359.7432469754
 20
-27.3786975606
 30
0.0
 11
-359.6079213263
 21
-57.270563506
 31
0.0
  0
LINE
  5
305
330
1F
100
AcDbEntity
  8
0
  6
Continuous
 62
     7
370
    25
100
AcDbLine
 10
-380.7348480458
 20
-27.5227114348
 30
0.0
 11
-359.7432469754
 21
-27.3786975606
 31
0.0
  0
LINE
  5
306
330
1F
100
AcDbEntity
  8
0
  6
Continuous
 62
     7
370
    25
100
AcDbLine
 10
-380.5995223967
 20
-57.4145773803
 30
0.0
 11
-380.7348480458
 21
-27.5227114348
 31
0.0
  0
LINE
  5
307
330
1F
100
AcDbEntity
  8
0
  6
Continuous
 62
     7
370
    25
100
AcDbLine
 10
-322.7760885094
 20
-23.1393767037
 30
0.0
 11
-319.7772883565
 21
-23.1188032931
 31
0.0
  0
LINE
  5
308
330
1F
100
AcDbEntity
  8
0
  6
Continuous
 62
     7
370
    25
100
AcDbLine
 10
-319.7772883565
 20
-23.1188032931
 30
0.0
 11
-319.4119091038
 21
-103.8268413458
 31
0.0
  0
LINE
  5
309
330
1F
100
AcDbEntity
  8
0
  6
Continuous
 62
     7
370
    25
100
AcDbLine
 10
-319.4119091038
 20
-103.8268413458
 30
0.0
 11
-322.4107092567
 21
-103.8474147564
 31
0.0
  0
LINE
  5
30A
330
1F
100
AcDbEntity
  8
0
  6
Continuous
 62
     7
370
    25
100
AcDbLine
 10
-322.4107092567
 20
-103.8474147564
 30
0.0
 11
-322.365600707
 21
-113.8113700716
 31
0.0
  0
LINE
  5
30B
330
1F
100
AcDbEntity
  8
0
  6
Continuous
 62
     7
370
    25
100
AcDbLine
 10
-322.365600707
 20
-113.8113700716
 30
0.0
 11
-319.3668005541
 21
-113.790796661
 31
0.0
  0
LINE
  5
30C
330
1F
100
AcDbEntity
  8
0
  6
Continuous
 62
     7
370
    25
100
AcDbLine
 10
-409.8360208983
 20
-2.8116994495
 30
0.0
 11
-379.8480193691
 21
-2.6059653434
 31
0.0
  0
LINE
  5
30D
330
1F
100
AcDbEntity
  8
0
  6
Continuous
 62
     7
370
    25
100
AcDbLine
 10
-379.8480193691
 20
-2.6059653434
 30
0.0
 11
-379.8344868042
 21
-5.595151938
 31
0.0
  0
LINE
  5
30E
330
1F
100
AcDbEntity
  8
0
  6
Continuous
 62
     7
370
    25
100
AcDbLine
 10
-379.8344868042
 20
-5.595151938
 30
0.0
 11
-349.8464852751
 21
-5.3894178319
 31
0.0
  0
LINE
  5
30F
330
1F
100
AcDbEntity
  8
0
  6
Continuous
 62
     7
370
    25
100
AcDbLine
 10
-349.8464852751
 20
-5.3894178319
 30
0.0
 11
-349.86001784
 21
-2.4002312374
 31
0.0
  0
LINE
  5
310
330
1F
100
AcDbEntity
  8
0
  6
Continuous
 62
     7
370
    25
100
AcDbLine
 10
-349.86001784
 20
-2.4002312374
 30
0.0
 11
-319.8720163109
 21
-2.1944971313
 31
0.0
  0
LINE
  5
311
330
1F
100
AcDbEntity
  8
0
  6
Continuous
 62
     7
370
    25
100
AcDbLine
 10
-319.8720163109
 20
-2.1944971313
 30
0.0
 11
-319.8223969062
 21
-13.154847978
 31
0.0
  0
LINE
  5
312
330
1F
100
AcDbEntity
  8
0
  6
Continuous
 62
     7
370
    25
100
AcDbLine
 10
-319.8223969062
 20
-13.154847978
 30
0.0
 11
-322.8211970591
 21
-13.1754213886
 31
0.0
  0
LINE
  5
313
330
1F
100
AcDbEntity
  8
0
  6
Continuous
 62
     7
370
    25
100
AcDbLine
 10
-322.8211970591
 20
-13.1754213886
 30
0.0
 11
-322.7760885094
 21
-23.1393767037
 31
0.0
  0
LINE
  5
314
330
1F
100
AcDbEntity
  8
0
  6
Continuous
 62
     7
370
    25
100
AcDbLine
 10
-319.2830478671
 20
-114.0444504364
 30
0.0
 11
-319.3668005541
 21
-113.790796661
 31
0.0
  0
LINE
  5
315
330
1F
100
AcDbEntity
  8
0
  6
Continuous
 62
     7
370
    25
100
AcDbLine
 10
-322.3269565698
 20
-104.1010685318
 30
0.0
 11
-322.4107092567
 21
-103.8474147564
 31
0.0
  0
LINE
  5
316
330
1F
100
AcDbEntity
  8
0
  6
Continuous
 62
     7
370
    25
100
AcDbLine
 10
-322.3269565698
 20
-104.1010685318
 30
0.0
 11
-322.2829989201
 21
-113.8108033781
 31
0.0
  0
LINE
  5
317
330
1F
100
AcDbEntity
  8
0
  6
Continuous
 62
     7
370
    25
100
AcDbLine
 10
-319.3281564168
 20
-104.0804951212
 30
0.0
 11
-319.4119091038
 21
-103.8268413458
 31
0.0
  0
LINE
  5
318
330
1F
100
AcDbEntity
  8
0
  6
Continuous
 62
     7
370
    25
100
AcDbLine
 10
-319.3281564168
 20
-104.0804951212
 30
0.0
 11
-322.3269565698
 21
-104.1010685318
 31
0.0
  0
LINE
  5
319
330
1F
100
AcDbEntity
  8
0
  6
Continuous
 62
     7
370
    25
100
AcDbLine
 10
-319.6935356695
 20
-23.3724570685
 30
0.0
 11
-319.7772883565
 21
-23.1188032931
 31
0.0
  0
LINE
  5
31A
330
1F
100
AcDbEntity
  8
0
  6
Continuous
 62
     7
370
    25
100
AcDbLine
 10
-319.6935356695
 20
-23.3724570685
 30
0.0
 11
-319.3281564168
 21
-104.0804951212
 31
0.0
  0
LINE
  5
31B
330
1F
100
AcDbEntity
  8
0
  6
Continuous
 62
     7
370
    25
100
AcDbLine
 10
-380.6510953589
 20
-27.7763652102
 30
0.0
 11
-380.7348480458
 21
-27.5227114348
 31
0.0
  0
LINE
  5
31C
330
1F
100
AcDbEntity
  8
0
  6
Continuous
 62
     7
370
    25
100
AcDbLine
 10
-380.5169206098
 20
-57.4140106868
 30
0.0
 11
-380.6510953589
 21
-27.7763652102
 31
0.0
  0
LINE
  5
31D
330
1F
100
AcDbEntity
  8
0
  6
Continuous
 62
     7
370
    25
100
AcDbLine
 10
-322.7374443722
 20
-13.429075164
 30
0.0
 11
-322.8211970591
 21
-13.1754213886
 31
0.0
  0
LINE
  5
31E
330
1F
100
AcDbEntity
  8
0
  6
Continuous
 62
     7
370
    25
100
AcDbLine
 10
-322.7374443722
 20
-13.429075164
 30
0.0
 11
-322.6934867225
 21
-23.1388100103
 31
0.0
  0
LINE
  5
31F
330
1F
100
AcDbEntity
  8
0
  6
Continuous
 62
     7
370
    25
100
AcDbLine
 10
-380.6510953589
 20
-27.7763652102
 30
0.0
 11
-359.7420960754
 21
-27.6329180295
 31
0.0
  0
LINE
  5
320
330
1F
100
AcDbEntity
  8
0
  6
Continuous
 62
     7
370
    25
100
AcDbLine
 10
-319.7386442192
 20
-13.4085017534
 30
0.0
 11
-319.8223969062
 21
-13.154847978
 31
0.0
  0
LINE
  5
321
330
1F
100
AcDbEntity
  8
0
  6
Continuous
 62
     7
370
    25
100
AcDbLine
 10
-319.7386442192
 20
-13.4085017534
 30
0.0
 11
-322.7374443722
 21
-13.429075164
 31
0.0
  0
LINE
  5
322
330
1F
100
AcDbEntity
  8
0
  6
Continuous
 62
     7
370
    25
100
AcDbLine
 10
-319.7882636239
 20
-2.4481509067
 30
0.0
 11
-319.8720163109
 21
-2.1944971313
 31
0.0
  0
LINE
  5
323
330
1F
100
AcDbEntity
  8
0
  6
Continuous
 62
     7
370
    25
100
AcDbLine
 10
-319.7882636239
 20
-2.4481509067
 30
0.0
 11
-319.7386442192
 21
-13.4085017534
 31
0.0
  0
LINE
  5
324
330
1F
100
AcDbEntity
  8
0
  6
Continuous
 62
     7
370
    25
100
AcDbLine
 10
-379.7642666822
 20
-2.8596191188
 30
0.0
 11
-379.8480193691
 21
-2.6059653434
 31
0.0
  0
LINE
  5
325
330
1F
100
AcDbEntity
  8
0
  6
Continuous
 62
     7
370
    25
100
AcDbLine
 10
-379.7642666822
 20
-2.8596191188
 30
0.0
 11
-379.7518850173
 21
-5.5945852445
 31
0.0
  0
LINE
  5
326
330
1F
100
AcDbEntity
  8
0
  6
Continuous
 62
     7
370
    25
100
AcDbLine
 10
-458.6937254353
 20
-140.6537440735
 30
0.0
 11
-458.6666603055
 21
-146.6321172626
 31
0.0
  0
LINE
  5
327
330
1F
100
AcDbEntity
  8
0
  6
Continuous
 62
     7
370
    25
100
AcDbLine
 10
-469.1895259705
 20
-140.7257510107
 30
0.0
 11
-458.6937254353
 21
-140.6537440735
 31
0.0
  0
LINE
  5
328
330
1F
100
AcDbEntity
  8
0
  6
Continuous
 62
     7
370
    25
100
AcDbLine
 10
-469.1624608407
 20
-146.7041241997
 30
0.0
 11
-469.1895259705
 21
-140.7257510107
 31
0.0
  0
LINE
  5
329
330
1F
100
AcDbEntity
  8
0
  6
Continuous
 62
     7
370
    25
100
AcDbLine
 10
-458.6666603055
 20
-146.6321172626
 30
0.0
 11
-469.1624608407
 21
-146.7041241997
 31
0.0
  0
LINE
  5
32A
330
1F
100
AcDbEntity
  8
0
  6
Continuous
 62
     7
370
    25
100
AcDbLine
 10
-495.7782491304
 20
-237.5615326159
 30
0.0
 11
-495.8233576802
 21
-227.5975773007
 31
0.0
  0
LINE
  5
32B
330
1F
100
AcDbEntity
  8
0
  6
Continuous
 62
     7
370
    25
100
AcDbLine
 10
-495.8233576802
 20
-227.5975773007
 30
0.0
 11
-498.7850831171
 21
-227.6178963585
 31
0.0
  0
LINE
  5
32C
330
1F
100
AcDbEntity
  8
0
  6
Continuous
 62
     7
370
    25
100
AcDbLine
 10
-499.0579898429
 20
-167.3359667019
 30
0.0
 11
-496.05918969
 21
-167.3153932913
 31
0.0
  0
LINE
  5
32D
330
1F
100
AcDbEntity
  8
0
  6
Continuous
 62
     7
370
    25
100
AcDbLine
 10
-496.05918969
 20
-167.3153932913
 30
0.0
 11
-496.1494067894
 21
-147.387482661
 31
0.0
  0
LINE
  5
32E
330
1F
100
AcDbEntity
  8
0
  6
Continuous
 62
     7
370
    25
100
AcDbLine
 10
-496.1494067894
 20
-147.387482661
 30
0.0
 11
-499.1482069423
 21
-147.4080560716
 31
0.0
  0
LINE
  5
32F
330
1F
100
AcDbEntity
  8
0
  6
Continuous
 62
     7
370
    25
100
AcDbLine
 10
-438.2244786653
 20
-135.5311814435
 30
0.0
 11
-499.2000817745
 21
-135.9495074591
 31
0.0
  0
LINE
  5
330
330
1F
100
AcDbEntity
  8
0
  6
Continuous
 62
     7
370
    25
100
AcDbLine
 10
-438.2244786653
 20
-135.5311814435
 30
0.0
 11
-438.3598043144
 21
-105.639315498
 31
0.0
  0
LINE
  5
331
330
1F
100
AcDbEntity
  8
0
  6
Continuous
 62
     7
370
    25
100
AcDbLine
 10
-499.3354074237
 20
-106.0576415137
 30
0.0
 11
-438.3598043144
 21
-105.639315498
 31
0.0
  0
LINE
  5
332
330
1F
100
AcDbEntity
  8
0
  6
Continuous
 62
     7
370
    25
100
AcDbLine
 10
-499.434646233
 20
-84.1369398204
 30
0.0
 11
-496.4358460801
 21
-84.1163664098
 31
0.0
  0
LINE
  5
333
330
1F
100
AcDbEntity
  8
0
  6
Continuous
 62
     7
370
    25
100
AcDbLine
 10
-496.4358460801
 20
-84.1163664098
 30
0.0
 11
-496.4809546298
 21
-74.1524110946
 31
0.0
  0
LINE
  5
334
330
1F
100
AcDbEntity
  8
0
  6
Continuous
 62
     7
370
    25
100
AcDbLine
 10
-496.4809546298
 20
-74.1524110946
 30
0.0
 11
-499.4797547827
 21
-74.1729845052
 31
0.0
  0
LINE
  5
335
330
1F
100
AcDbEntity
  8
0
  6
Continuous
 62
     7
370
    25
100
AcDbLine
 10
-499.1482069423
 20
-147.4080560716
 30
0.0
 11
-499.5158416225
 21
-66.2018202531
 31
0.0
  0
LINE
  5
336
330
1F
100
AcDbEntity
  8
0
  6
Continuous
 62
     7
370
    25
100
AcDbLine
 10
-469.5278400934
 20
-65.9960861471
 30
0.0
 11
-529.5038431517
 21
-66.4075543592
 31
0.0
  0
LINE
  5
337
330
1F
100
AcDbEntity
  8
0
  6
Continuous
 62
     7
370
    25
100
AcDbLine
 10
-469.5278400934
 20
-65.9960861471
 30
0.0
 11
-469.5143075285
 21
-68.9852727416
 31
0.0
  0
LINE
  5
338
330
1F
100
AcDbEntity
  8
0
  6
Continuous
 62
     7
370
    25
100
AcDbLine
 10
-469.5143075285
 20
-68.9852727416
 30
0.0
 11
-439.5263059993
 21
-68.7795386355
 31
0.0
  0
LINE
  5
339
330
1F
100
AcDbEntity
  8
0
  6
Continuous
 62
     7
370
    25
100
AcDbLine
 10
-439.5263059993
 20
-68.7795386355
 30
0.0
 11
-439.5398385642
 21
-65.790352041
 31
0.0
  0
LINE
  5
33A
330
1F
100
AcDbEntity
  8
0
  6
Continuous
 62
     7
370
    25
100
AcDbLine
 10
-439.5398385642
 20
-65.790352041
 30
0.0
 11
-409.5518370351
 21
-65.5846179349
 31
0.0
  0
LINE
  5
33B
330
1F
100
AcDbEntity
  8
0
  6
Continuous
 62
     7
370
    25
100
AcDbLine
 10
-409.2067566298
 20
-141.8088760958
 30
0.0
 11
-410.2063566807
 21
-141.8157338993
 31
0.0
  0
LINE
  5
33C
330
1F
100
AcDbEntity
  8
0
  6
Continuous
 62
     7
370
    25
100
AcDbLine
 10
-410.2063566807
 20
-141.8157338993
 30
0.0
 11
-410.0710310316
 21
-171.7075998448
 31
0.0
  0
LINE
  5
33D
330
1F
100
AcDbEntity
  8
0
  6
Continuous
 62
     7
370
    25
100
AcDbLine
 10
-410.0710310316
 20
-171.7075998448
 30
0.0
 11
-409.0714309806
 21
-171.7007420413
 31
0.0
  0
LINE
  5
33E
330
1F
100
AcDbEntity
  8
0
  6
Continuous
 62
     7
370
    25
100
AcDbLine
 10
-438.7278846694
 20
-245.1415477136
 30
0.0
 11
-438.7143521044
 21
-248.1307343082
 31
0.0
  0
LINE
  5
33F
330
1F
100
AcDbEntity
  8
0
  6
Continuous
 62
     7
370
    25
100
AcDbLine
 10
-468.7023536336
 20
-248.3364684143
 30
0.0
 11
-468.7158861985
 21
-245.3472818197
 31
0.0
  0
LINE
  5
340
330
1F
100
AcDbEntity
  8
0
  6
Continuous
 62
     7
370
    25
100
AcDbLine
 10
-498.7038877276
 20
-245.5530159258
 30
0.0
 11
-499.0579898429
 21
-167.3359667019
 31
0.0
  0
LINE
  5
341
330
1F
100
AcDbEntity
  8
0
  6
Continuous
 62
     7
370
    25
100
AcDbLine
 10
-498.7399745674
 20
-237.5818516737
 30
0.0
 11
-495.7782491304
 21
-237.5615326159
 31
0.0
  0
LINE
  5
342
330
1F
100
AcDbEntity
  8
0
  6
Continuous
 62
     7
370
    25
100
AcDbLine
 10
-408.8410755071
 20
-204.3372505909
 30
0.0
 11
-408.7971178575
 21
-214.0469854372
 31
0.0
  0
LINE
  5
343
330
1F
100
AcDbEntity
  8
0
  6
Continuous
 62
     7
370
    25
100
AcDbLine
 10
-408.7387322402
 20
-245.1900340765
 30
0.0
 11
-419.651731014
 21
-245.2649032219
 31
0.0
  0
LINE
  5
344
330
1F
100
AcDbEntity
  8
0
  6
Continuous
 62
     7
370
    25
100
AcDbLine
 10
-429.7303333106
 20
-245.3340479507
 30
0.0
 11
-438.6441319824
 21
-245.395201489
 31
0.0
  0
LINE
  5
345
330
1F
100
AcDbEntity
  8
0
  6
Continuous
 62
     7
370
    25
100
AcDbLine
 10
-438.6441319824
 20
-245.395201489
 30
0.0
 11
-438.7278846694
 21
-245.1415477136
 31
0.0
  0
LINE
  5
346
330
1F
100
AcDbEntity
  8
0
  6
Continuous
 62
     7
370
    25
100
AcDbLine
 10
-438.6441319824
 20
-245.395201489
 30
0.0
 11
-438.6317503176
 21
-248.1301676147
 31
0.0
  0
LINE
  5
347
330
1F
100
AcDbEntity
  8
0
  6
Continuous
 62
     7
370
    25
100
AcDbLine
 10
-468.7147352985
 20
-245.6015022886
 30
0.0
 11
-490.1235346075
 21
-245.7483783711
 31
0.0
  0
LINE
  5
348
330
1F
100
AcDbEntity
  8
0
  6
Continuous
 62
     7
370
    25
100
AcDbLine
 10
-498.7013304302
 20
-227.8715501339
 30
0.0
 11
-498.7850831171
 21
-227.6178963585
 31
0.0
  0
LINE
  5
349
330
1F
100
AcDbEntity
  8
0
  6
Continuous
 62
     7
370
    25
100
AcDbLine
 10
-495.8222067801
 20
-227.8517977696
 30
0.0
 11
-498.7013304302
 21
-227.8715501339
 31
0.0
  0
LINE
  5
34A
330
1F
100
AcDbEntity
  8
0
  6
Continuous
 62
     7
370
    25
100
AcDbLine
 10
-410.1226039938
 20
-142.0693876747
 30
0.0
 11
-410.2063566807
 21
-141.8157338993
 31
0.0
  0
LINE
  5
34B
330
1F
100
AcDbEntity
  8
0
  6
Continuous
 62
     7
370
    25
100
AcDbLine
 10
-410.1226039938
 20
-142.0693876747
 30
0.0
 11
-409.9884292447
 21
-171.7070331513
 31
0.0
  0
LINE
  5
34C
330
1F
100
AcDbEntity
  8
0
  6
Continuous
 62
     7
370
    25
100
AcDbLine
 10
-409.1230039428
 20
-142.0625298712
 30
0.0
 11
-409.2067566298
 21
-141.8088760958
 31
0.0
  0
LINE
  5
34D
330
1F
100
AcDbEntity
  8
0
  6
Continuous
 62
     7
370
    25
100
AcDbLine
 10
-409.1613462101
 20
-133.5931678533
 30
0.0
 11
-409.1230039428
 21
-142.0625298712
 31
0.0
  0
LINE
  5
34E
330
1F
100
AcDbEntity
  8
0
  6
Continuous
 62
     7
370
    25
100
AcDbLine
 10
-409.1230039428
 20
-142.0625298712
 30
0.0
 11
-410.1226039938
 21
-142.0693876747
 31
0.0
  0
LINE
  5
34F
330
1F
100
AcDbEntity
  8
0
  6
Continuous
 62
     7
370
    25
100
AcDbLine
 10
-469.1057732836
 20
-140.9794047861
 30
0.0
 11
-469.1895259705
 21
-140.7257510107
 31
0.0
  0
LINE
  5
350
330
1F
100
AcDbEntity
  8
0
  6
Continuous
 62
     7
370
    25
100
AcDbLine
 10
-469.0798590538
 20
-146.7035575063
 30
0.0
 11
-469.1057732836
 21
-140.9794047861
 31
0.0
  0
LINE
  5
351
330
1F
100
AcDbEntity
  8
0
  6
Continuous
 62
     7
370
    25
100
AcDbLine
 10
-469.1057732836
 20
-140.9794047861
 30
0.0
 11
-458.6925745353
 21
-140.9079645424
 31
0.0
  0
LINE
  5
352
330
1F
100
AcDbEntity
  8
0
  6
Continuous
 62
     7
370
    25
100
AcDbLine
 10
-499.0644542554
 20
-147.661709847
 30
0.0
 11
-499.1482069423
 21
-147.4080560716
 31
0.0
  0
LINE
  5
353
330
1F
100
AcDbEntity
  8
0
  6
Continuous
 62
     7
370
    25
100
AcDbLine
 10
-496.1482558894
 20
-147.6417031298
 30
0.0
 11
-499.0644542554
 21
-147.661709847
 31
0.0
  0
LINE
  5
354
330
1F
100
AcDbEntity
  8
0
  6
Continuous
 62
     7
370
    25
100
AcDbLine
 10
-469.4440874064
 20
-66.2497399224
 30
0.0
 11
-469.5278400934
 21
-65.9960861471
 31
0.0
  0
LINE
  5
355
330
1F
100
AcDbEntity
  8
0
  6
Continuous
 62
     7
370
    25
100
AcDbLine
 10
-469.4440874064
 20
-66.2497399224
 30
0.0
 11
-469.4317057416
 21
-68.9847060481
 31
0.0
  0
LINE
  5
356
330
1F
100
AcDbEntity
  8
0
  6
Continuous
 62
     7
370
    25
100
AcDbLine
 10
-499.3960020958
 20
-74.4266382806
 30
0.0
 11
-499.4797547827
 21
-74.1729845052
 31
0.0
  0
LINE
  5
357
330
1F
100
AcDbEntity
  8
0
  6
Continuous
 62
     7
370
    25
100
AcDbLine
 10
-496.4798037298
 20
-74.4066315635
 30
0.0
 11
-499.3960020958
 21
-74.4266382806
 31
0.0
  0
LINE
  5
358
330
1F
100
AcDbEntity
  8
0
  6
Continuous
 62
     7
370
    25
100
AcDbLine
 10
-498.6573727805
 20
-237.5812849802
 30
0.0
 11
-498.7013304302
 21
-227.8715501339
 31
0.0
  0
LINE
  5
359
330
1F
100
AcDbEntity
  8
0
  6
Continuous
 62
     7
370
    25
100
AcDbLine
 10
-534.3033657878
 20
-110.2832467635
 30
0.0
 11
-534.4567348568
 21
-76.405798692
 31
0.0
  0
LINE
  5
35A
330
1F
100
AcDbEntity
  8
0
  6
Continuous
 62
     7
370
    25
100
AcDbLine
 10
-534.4567348568
 20
-76.405798692
 30
0.0
 11
-579.4387371505
 21
-76.7143998511
 31
0.0
  0
LINE
  5
35B
330
1F
100
AcDbEntity
  8
0
  6
Continuous
 62
     7
370
    25
100
AcDbLine
 10
-579.4387371505
 20
-76.7143998511
 30
0.0
 11
-579.2853680815
 21
-110.5918479226
 31
0.0
  0
LINE
  5
35C
330
1F
100
AcDbEntity
  8
0
  6
Continuous
 62
     7
370
    25
100
AcDbLine
 10
-579.2853680815
 20
-110.5918479226
 30
0.0
 11
-534.3033657878
 21
-110.2832467635
 31
0.0
  0
LINE
  5
35D
330
1F
100
AcDbEntity
  8
0
  6
Continuous
 62
     7
370
    25
100
AcDbLine
 10
-513.7835947367
 20
-226.72436788
 30
0.0
 11
-513.7790838817
 21
-227.7207634115
 31
0.0
  0
LINE
  5
35E
330
1F
100
AcDbEntity
  8
0
  6
Continuous
 62
     7
370
    25
100
AcDbLine
 10
-513.7790838817
 20
-227.7207634115
 30
0.0
 11
-503.783083372
 21
-227.6521853762
 31
0.0
  0
LINE
  5
35F
330
1F
100
AcDbEntity
  8
0
  6
Continuous
 62
     7
370
    25
100
AcDbLine
 10
-503.783083372
 20
-227.6521853762
 30
0.0
 11
-503.787594227
 21
-226.6557898447
 31
0.0
  0
LINE
  5
360
330
1F
100
AcDbEntity
  8
0
  6
Continuous
 62
     7
370
    25
100
AcDbLine
 10
-503.787594227
 20
-226.6557898447
 30
0.0
 11
-513.7835947367
 21
-226.72436788
 31
0.0
  0
LINE
  5
361
330
1F
100
AcDbEntity
  8
0
  6
Continuous
 62
     7
370
    25
100
AcDbLine
 10
-513.8016381566
 20
-222.738785754
 30
0.0
 11
-513.7971273016
 21
-223.7351812855
 31
0.0
  0
LINE
  5
362
330
1F
100
AcDbEntity
  8
0
  6
Continuous
 62
     7
370
    25
100
AcDbLine
 10
-513.7971273016
 20
-223.7351812855
 30
0.0
 11
-503.8011267919
 21
-223.6666032501
 31
0.0
  0
LINE
  5
363
330
1F
100
AcDbEntity
  8
0
  6
Continuous
 62
     7
370
    25
100
AcDbLine
 10
-503.8011267919
 20
-223.6666032501
 30
0.0
 11
-503.8056376468
 21
-222.6702077186
 31
0.0
  0
LINE
  5
364
330
1F
100
AcDbEntity
  8
0
  6
Continuous
 62
     7
370
    25
100
AcDbLine
 10
-503.8056376468
 20
-222.6702077186
 30
0.0
 11
-513.8016381566
 21
-222.738785754
 31
0.0
  0
LINE
  5
365
330
1F
100
AcDbEntity
  8
0
  6
Continuous
 62
     7
370
    25
100
AcDbLine
 10
-578.8478151492
 20
-207.2422144795
 30
0.0
 11
-578.7079786451
 21
-238.1304759565
 31
0.0
  0
LINE
  5
366
330
1F
100
AcDbEntity
  8
0
  6
Continuous
 62
     7
370
    25
100
AcDbLine
 10
-578.7079786451
 20
-238.1304759565
 30
0.0
 11
-547.720377065
 21
-237.9178840469
 31
0.0
  0
LINE
  5
367
330
1F
100
AcDbEntity
  8
0
  6
Continuous
 62
     7
370
    25
100
AcDbLine
 10
-547.720377065
 20
-237.9178840469
 30
0.0
 11
-547.8602135691
 21
-207.0296225699
 31
0.0
  0
LINE
  5
368
330
1F
100
AcDbEntity
  8
0
  6
Continuous
 62
     7
370
    25
100
AcDbLine
 10
-547.8602135691
 20
-207.0296225699
 30
0.0
 11
-578.8478151492
 21
-207.2422144795
 31
0.0
  0
LINE
  5
369
330
1F
100
AcDbEntity
  8
0
  6
Continuous
 62
     7
370
    25
100
AcDbLine
 10
-588.7039791548
 20
-238.1990539918
 30
0.0
 11
-588.6678923151
 21
-246.170218244
 31
0.0
  0
LINE
  5
36A
330
1F
100
AcDbEntity
  8
0
  6
Continuous
 62
     7
370
    25
100
AcDbLine
 10
-585.7051790019
 20
-238.1784805812
 30
0.0
 11
-588.7039791548
 21
-238.1990539918
 31
0.0
  0
LINE
  5
36B
330
1F
100
AcDbEntity
  8
0
  6
Continuous
 62
     7
370
    25
100
AcDbLine
 10
-585.7502875516
 20
-228.2145252661
 30
0.0
 11
-585.7051790019
 21
-238.1784805812
 31
0.0
  0
LINE
  5
36C
330
1F
100
AcDbEntity
  8
0
  6
Continuous
 62
     7
370
    25
100
AcDbLine
 10
-588.7490877046
 20
-228.2350986767
 30
0.0
 11
-585.7502875516
 21
-228.2145252661
 31
0.0
  0
LINE
  5
36D
330
1F
100
AcDbEntity
  8
0
  6
Continuous
 62
     7
370
    25
100
AcDbLine
 10
-589.0355269953
 20
-164.9639824255
 30
0.0
 11
-588.7490877046
 21
-228.2350986767
 31
0.0
  0
LINE
  5
36E
330
1F
100
AcDbEntity
  8
0
  6
Continuous
 62
     7
370
    25
100
AcDbLine
 10
-586.0367268423
 20
-164.9434090149
 30
0.0
 11
-589.0355269953
 21
-164.9639824255
 31
0.0
  0
LINE
  5
36F
330
1F
100
AcDbEntity
  8
0
  6
Continuous
 62
     7
370
    25
100
AcDbLine
 10
-586.1269439418
 20
-145.0154983846
 30
0.0
 11
-586.0367268423
 21
-164.9434090149
 31
0.0
  0
LINE
  5
370
330
1F
100
AcDbEntity
  8
0
  6
Continuous
 62
     7
370
    25
100
AcDbLine
 10
-589.1257440947
 20
-145.0360717952
 30
0.0
 11
-586.1269439418
 21
-145.0154983846
 31
0.0
  0
LINE
  5
371
330
1F
100
AcDbEntity
  8
0
  6
Continuous
 62
     7
370
    25
100
AcDbLine
 10
-589.3986508205
 20
-84.7541421386
 30
0.0
 11
-589.1257440947
 21
-145.0360717952
 31
0.0
  0
LINE
  5
372
330
1F
100
AcDbEntity
  8
0
  6
Continuous
 62
     7
370
    25
100
AcDbLine
 10
-586.3998506675
 20
-84.733568728
 30
0.0
 11
-589.3986508205
 21
-84.7541421386
 31
0.0
  0
LINE
  5
373
330
1F
100
AcDbEntity
  8
0
  6
Continuous
 62
     7
370
    25
100
AcDbLine
 10
-586.4449592173
 20
-74.7696134128
 30
0.0
 11
-586.3998506675
 21
-84.733568728
 31
0.0
  0
LINE
  5
374
330
1F
100
AcDbEntity
  8
0
  6
Continuous
 62
     7
370
    25
100
AcDbLine
 10
-589.4437593702
 20
-74.7901868234
 30
0.0
 11
-586.4449592173
 21
-74.7696134128
 31
0.0
  0
LINE
  5
375
330
1F
100
AcDbEntity
  8
0
  6
Continuous
 62
     7
370
    25
100
AcDbLine
 10
-589.4798462099
 20
-66.8190225713
 30
0.0
 11
-589.4437593702
 21
-74.7901868234
 31
0.0
  0
LINE
  5
376
330
1F
100
AcDbEntity
  8
0
  6
Continuous
 62
     7
370
    25
100
AcDbLine
 10
-559.4918446808
 20
-66.6132884652
 30
0.0
 11
-589.4798462099
 21
-66.8190225713
 31
0.0
  0
LINE
  5
377
330
1F
100
AcDbEntity
  8
0
  6
Continuous
 62
     7
370
    25
100
AcDbLine
 10
-559.5053772457
 20
-63.6241018707
 30
0.0
 11
-559.4918446808
 21
-66.6132884652
 31
0.0
  0
LINE
  5
378
330
1F
100
AcDbEntity
  8
0
  6
Continuous
 62
     7
370
    25
100
AcDbLine
 10
-529.5173757166
 20
-63.4183677646
 30
0.0
 11
-559.5053772457
 21
-63.6241018707
 31
0.0
  0
LINE
  5
379
330
1F
100
AcDbEntity
  8
0
  6
Continuous
 62
     7
370
    25
100
AcDbLine
 10
-529.5038431517
 20
-66.4075543592
 30
0.0
 11
-529.5173757166
 21
-63.4183677646
 31
0.0
  0
LINE
  5
37A
330
1F
100
AcDbEntity
  8
0
  6
Continuous
 62
     7
370
    25
100
AcDbLine
 10
-500.1838938331
 20
-139.443749623
 30
0.0
 11
-499.1842937821
 21
-139.4368918194
 31
0.0
  0
LINE
  5
37B
330
1F
100
AcDbEntity
  8
0
  6
Continuous
 62
     7
370
    25
100
AcDbLine
 10
-500.0485681839
 20
-169.3356155684
 30
0.0
 11
-500.1838938331
 21
-139.443749623
 31
0.0
  0
LINE
  5
37C
330
1F
100
AcDbEntity
  8
0
  6
Continuous
 62
     7
370
    25
100
AcDbLine
 10
-499.048968133
 20
-169.3287577649
 30
0.0
 11
-500.0485681839
 21
-169.3356155684
 31
0.0
  0
LINE
  5
37D
330
1F
100
AcDbEntity
  8
0
  6
Continuous
 62
     7
370
    25
100
AcDbLine
 10
-528.7054218217
 20
-242.7695634373
 30
0.0
 11
-528.6918892568
 21
-245.7587500318
 31
0.0
  0
LINE
  5
37E
330
1F
100
AcDbEntity
  8
0
  6
Continuous
 62
     7
370
    25
100
AcDbLine
 10
-558.6934233508
 20
-242.9752975433
 30
0.0
 11
-528.7054218217
 21
-242.7695634373
 31
0.0
  0
LINE
  5
37F
330
1F
100
AcDbEntity
  8
0
  6
Continuous
 62
     7
370
    25
100
AcDbLine
 10
-558.6798907859
 20
-245.9644841379
 30
0.0
 11
-558.6934233508
 21
-242.9752975433
 31
0.0
  0
LINE
  5
380
330
1F
100
AcDbEntity
  8
0
  6
Continuous
 62
     7
370
    25
100
AcDbLine
 10
-513.8106598665
 20
-220.7459946909
 30
0.0
 11
-513.8061490115
 21
-221.7423902224
 31
0.0
  0
LINE
  5
381
330
1F
100
AcDbEntity
  8
0
  6
Continuous
 62
     7
370
    25
100
AcDbLine
 10
-513.8061490115
 20
-221.7423902224
 30
0.0
 11
-503.8101485018
 21
-221.6738121871
 31
0.0
  0
LINE
  5
382
330
1F
100
AcDbEntity
  8
0
  6
Continuous
 62
     7
370
    25
100
AcDbLine
 10
-503.8101485018
 20
-221.6738121871
 30
0.0
 11
-503.8146593568
 21
-220.6774166556
 31
0.0
  0
LINE
  5
383
330
1F
100
AcDbEntity
  8
0
  6
Continuous
 62
     7
370
    25
100
AcDbLine
 10
-503.8146593568
 20
-220.6774166556
 30
0.0
 11
-513.8106598665
 21
-220.7459946909
 31
0.0
  0
LINE
  5
384
330
1F
100
AcDbEntity
  8
0
  6
Continuous
 62
     7
370
    25
100
AcDbLine
 10
-513.7926164466
 20
-224.731576817
 30
0.0
 11
-513.7881055916
 21
-225.7279723485
 31
0.0
  0
LINE
  5
385
330
1F
100
AcDbEntity
  8
0
  6
Continuous
 62
     7
370
    25
100
AcDbLine
 10
-513.7881055916
 20
-225.7279723485
 30
0.0
 11
-503.7921050819
 21
-225.6593943132
 31
0.0
  0
LINE
  5
386
330
1F
100
AcDbEntity
  8
0
  6
Continuous
 62
     7
370
    25
100
AcDbLine
 10
-503.7921050819
 20
-225.6593943132
 30
0.0
 11
-503.7966159369
 21
-224.6629987816
 31
0.0
  0
LINE
  5
387
330
1F
100
AcDbEntity
  8
0
  6
Continuous
 62
     7
370
    25
100
AcDbLine
 10
-503.7966159369
 20
-224.6629987816
 30
0.0
 11
-513.7926164466
 21
-224.731576817
 31
0.0
  0
LINE
  5
388
330
1F
100
AcDbEntity
  8
0
  6
Continuous
 62
     7
370
    25
100
AcDbLine
 10
-513.7745730267
 20
-228.717158943
 30
0.0
 11
-513.7700621718
 21
-229.7135544746
 31
0.0
  0
LINE
  5
389
330
1F
100
AcDbEntity
  8
0
  6
Continuous
 62
     7
370
    25
100
AcDbLine
 10
-513.7700621718
 20
-229.7135544746
 30
0.0
 11
-503.774061662
 21
-229.6449764392
 31
0.0
  0
LINE
  5
38A
330
1F
100
AcDbEntity
  8
0
  6
Continuous
 62
     7
370
    25
100
AcDbLine
 10
-503.774061662
 20
-229.6449764392
 30
0.0
 11
-503.778572517
 21
-228.6485809077
 31
0.0
  0
LINE
  5
38B
330
1F
100
AcDbEntity
  8
0
  6
Continuous
 62
     7
370
    25
100
AcDbLine
 10
-503.778572517
 20
-228.6485809077
 30
0.0
 11
-513.7745730267
 21
-228.717158943
 31
0.0
  0
LINE
  5
38C
330
1F
100
AcDbEntity
  8
0
  6
Continuous
 62
     7
370
    25
100
AcDbLine
 10
-528.6918892568
 20
-245.7587500318
 30
0.0
 11
-528.6081365699
 21
-246.0124038072
 31
0.0
  0
LINE
  5
38D
330
1F
100
AcDbEntity
  8
0
  6
Continuous
 62
     7
370
    25
100
AcDbLine
 10
-528.6081365699
 20
-246.0124038072
 30
0.0
 11
-510.1981374138
 21
-245.8861011353
 31
0.0
  0
LINE
  5
38E
330
1F
100
AcDbEntity
  8
0
  6
Continuous
 62
     7
370
    25
100
AcDbLine
 10
-558.6934233508
 20
-242.9752975433
 30
0.0
 11
-558.6096706639
 21
-243.2289513187
 31
0.0
  0
LINE
  5
38F
330
1F
100
AcDbEntity
  8
0
  6
Continuous
 62
     7
370
    25
100
AcDbLine
 10
-558.6096706639
 20
-243.2289513187
 30
0.0
 11
-528.7042709217
 21
-243.0237839062
 31
0.0
  0
LINE
  5
390
330
1F
100
AcDbEntity
  8
0
  6
Continuous
 62
     7
370
    25
100
AcDbLine
 10
-513.7745730267
 20
-228.717158943
 30
0.0
 11
-513.6908203398
 21
-228.9708127184
 31
0.0
  0
LINE
  5
391
330
1F
100
AcDbEntity
  8
0
  6
Continuous
 62
     7
370
    25
100
AcDbLine
 10
-503.777421617
 20
-228.9028013766
 30
0.0
 11
-513.6908203398
 21
-228.9708127184
 31
0.0
  0
LINE
  5
392
330
1F
100
AcDbEntity
  8
0
  6
Continuous
 62
     7
370
    25
100
AcDbLine
 10
-558.6798907859
 20
-245.9644841379
 30
0.0
 11
-558.596138099
 21
-246.2181379133
 31
0.0
  0
LINE
  5
393
330
1F
100
AcDbEntity
  8
0
  6
Continuous
 62
     7
370
    25
100
AcDbLine
 10
-558.596138099
 20
-246.2181379133
 30
0.0
 11
-558.6096706639
 21
-243.2289513187
 31
0.0
  0
LINE
  5
394
330
1F
100
AcDbEntity
  8
0
  6
Continuous
 62
     7
370
    25
100
AcDbLine
 10
-588.6678923151
 20
-246.170218244
 30
0.0
 11
-588.5841396281
 21
-246.4238720193
 31
0.0
  0
LINE
  5
395
330
1F
100
AcDbEntity
  8
0
  6
Continuous
 62
     7
370
    25
100
AcDbLine
 10
-588.5841396281
 20
-246.4238720193
 30
0.0
 11
-583.6687411602
 21
-246.3901496951
 31
0.0
  0
LINE
  5
396
330
1F
100
AcDbEntity
  8
0
  6
Continuous
 62
     7
370
    25
100
AcDbLine
 10
-573.5901388636
 20
-246.3210049663
 30
0.0
 11
-558.596138099
 21
-246.2181379133
 31
0.0
  0
LINE
  5
397
330
1F
100
AcDbEntity
  8
0
  6
Continuous
 62
     7
370
    25
100
AcDbLine
 10
-513.7835947367
 20
-226.72436788
 30
0.0
 11
-513.6998420497
 21
-226.9780216554
 31
0.0
  0
LINE
  5
398
330
1F
100
AcDbEntity
  8
0
  6
Continuous
 62
     7
370
    25
100
AcDbLine
 10
-503.7864433269
 20
-226.9100103135
 30
0.0
 11
-513.6998420497
 21
-226.9780216554
 31
0.0
  0
LINE
  5
399
330
1F
100
AcDbEntity
  8
0
  6
Continuous
 62
     7
370
    25
100
AcDbLine
 10
-513.6908203398
 20
-228.9708127184
 30
0.0
 11
-513.6874603849
 21
-229.7129877811
 31
0.0
  0
LINE
  5
39A
330
1F
100
AcDbEntity
  8
0
  6
Continuous
 62
     7
370
    25
100
AcDbLine
 10
-513.7926164466
 20
-224.731576817
 30
0.0
 11
-513.7088637597
 21
-224.9852305924
 31
0.0
  0
LINE
  5
39B
330
1F
100
AcDbEntity
  8
0
  6
Continuous
 62
     7
370
    25
100
AcDbLine
 10
-503.7954650369
 20
-224.9172192505
 30
0.0
 11
-513.7088637597
 21
-224.9852305924
 31
0.0
  0
LINE
  5
39C
330
1F
100
AcDbEntity
  8
0
  6
Continuous
 62
     7
370
    25
100
AcDbLine
 10
-513.6998420497
 20
-226.9780216554
 30
0.0
 11
-513.6964820948
 21
-227.7201967181
 31
0.0
  0
LINE
  5
39D
330
1F
100
AcDbEntity
  8
0
  6
Continuous
 62
     7
370
    25
100
AcDbLine
 10
-513.8016381566
 20
-222.738785754
 30
0.0
 11
-513.7178854696
 21
-222.9924395294
 31
0.0
  0
LINE
  5
39E
330
1F
100
AcDbEntity
  8
0
  6
Continuous
 62
     7
370
    25
100
AcDbLine
 10
-503.8044867468
 20
-222.9244281875
 30
0.0
 11
-513.7178854696
 21
-222.9924395294
 31
0.0
  0
LINE
  5
39F
330
1F
100
AcDbEntity
  8
0
  6
Continuous
 62
     7
370
    25
100
AcDbLine
 10
-513.7088637597
 20
-224.9852305924
 30
0.0
 11
-513.7055038048
 21
-225.727405655
 31
0.0
  0
LINE
  5
3A0
330
1F
100
AcDbEntity
  8
0
  6
Continuous
 62
     7
370
    25
100
AcDbLine
 10
-513.8106598665
 20
-220.7459946909
 30
0.0
 11
-513.7269071796
 21
-220.9996484663
 31
0.0
  0
LINE
  5
3A1
330
1F
100
AcDbEntity
  8
0
  6
Continuous
 62
     7
370
    25
100
AcDbLine
 10
-503.8135084567
 20
-220.9316371244
 30
0.0
 11
-513.7269071796
 21
-220.9996484663
 31
0.0
  0
LINE
  5
3A2
330
1F
100
AcDbEntity
  8
0
  6
Continuous
 62
     7
370
    25
100
AcDbLine
 10
-513.7178854696
 20
-222.9924395294
 30
0.0
 11
-513.7145255147
 21
-223.734614592
 31
0.0
  0
LINE
  5
3A3
330
1F
100
AcDbEntity
  8
0
  6
Continuous
 62
     7
370
    25
100
AcDbLine
 10
-513.7269071796
 20
-220.9996484663
 30
0.0
 11
-513.7235472247
 21
-221.741823529
 31
0.0
  0
LINE
  5
3A4
330
1F
100
AcDbEntity
  8
0
  6
Continuous
 62
     7
370
    25
100
AcDbLine
 10
-578.8478151492
 20
-207.2422144795
 30
0.0
 11
-578.7640624623
 21
-207.4958682549
 31
0.0
  0
LINE
  5
3A5
330
1F
100
AcDbEntity
  8
0
  6
Continuous
 62
     7
370
    25
100
AcDbLine
 10
-578.7640624623
 20
-207.4958682549
 30
0.0
 11
-578.6253768583
 21
-238.129909263
 31
0.0
  0
LINE
  5
3A6
330
1F
100
AcDbEntity
  8
0
  6
Continuous
 62
     7
370
    25
100
AcDbLine
 10
-588.7490877046
 20
-228.2350986767
 30
0.0
 11
-588.6653350176
 21
-228.4887524521
 31
0.0
  0
LINE
  5
3A7
330
1F
100
AcDbEntity
  8
0
  6
Continuous
 62
     7
370
    25
100
AcDbLine
 10
-588.6653350176
 20
-228.4887524521
 30
0.0
 11
-585.7491366516
 21
-228.468745735
 31
0.0
  0
LINE
  5
3A8
330
1F
100
AcDbEntity
  8
0
  6
Continuous
 62
     7
370
    25
100
AcDbLine
 10
-547.8590626691
 20
-207.2838430388
 30
0.0
 11
-578.7640624623
 21
-207.4958682549
 31
0.0
  0
LINE
  5
3A9
330
1F
100
AcDbEntity
  8
0
  6
Continuous
 62
     7
370
    25
100
AcDbLine
 10
-500.1838938331
 20
-139.443749623
 30
0.0
 11
-500.1001411461
 21
-139.6974033984
 31
0.0
  0
LINE
  5
3AA
330
1F
100
AcDbEntity
  8
0
  6
Continuous
 62
     7
370
    25
100
AcDbLine
 10
-499.9659663971
 20
-169.335048875
 30
0.0
 11
-500.1001411461
 21
-139.6974033984
 31
0.0
  0
LINE
  5
3AB
330
1F
100
AcDbEntity
  8
0
  6
Continuous
 62
     7
370
    25
100
AcDbLine
 10
-500.1001411461
 20
-139.6974033984
 30
0.0
 11
-499.1831428821
 21
-139.6911122883
 31
0.0
  0
LINE
  5
3AC
330
1F
100
AcDbEntity
  8
0
  6
Continuous
 62
     7
370
    25
100
AcDbLine
 10
-499.3520444461
 20
-84.1363731269
 30
0.0
 11
-499.3960020958
 21
-74.4266382806
 31
0.0
  0
LINE
  5
3AD
330
1F
100
AcDbEntity
  8
0
  6
Continuous
 62
     7
370
    25
100
AcDbLine
 10
-589.1257440947
 20
-145.0360717952
 30
0.0
 11
-589.0419914077
 21
-145.2897255706
 31
0.0
  0
LINE
  5
3AE
330
1F
100
AcDbEntity
  8
0
  6
Continuous
 62
     7
370
    25
100
AcDbLine
 10
-589.0419914077
 20
-145.2897255706
 30
0.0
 11
-586.1257930417
 21
-145.2697188535
 31
0.0
  0
LINE
  5
3AF
330
1F
100
AcDbEntity
  8
0
  6
Continuous
 62
     7
370
    25
100
AcDbLine
 10
-579.4387371505
 20
-76.7143998511
 30
0.0
 11
-579.3549844636
 21
-76.9680536265
 31
0.0
  0
LINE
  5
3B0
330
1F
100
AcDbEntity
  8
0
  6
Continuous
 62
     7
370
    25
100
AcDbLine
 10
-579.3549844636
 20
-76.9680536265
 30
0.0
 11
-579.2027662946
 21
-110.5912812291
 31
0.0
  0
LINE
  5
3B1
330
1F
100
AcDbEntity
  8
0
  6
Continuous
 62
     7
370
    25
100
AcDbLine
 10
-534.4555839567
 20
-76.6600191609
 30
0.0
 11
-579.3549844636
 21
-76.9680536265
 31
0.0
  0
LINE
  5
3B2
330
1F
100
AcDbEntity
  8
0
  6
Continuous
 62
     7
370
    25
100
AcDbLine
 10
-529.5173757166
 20
-63.4183677646
 30
0.0
 11
-529.4336230296
 21
-63.67202154
 31
0.0
  0
LINE
  5
3B3
330
1F
100
AcDbEntity
  8
0
  6
Continuous
 62
     7
370
    25
100
AcDbLine
 10
-529.4212413648
 20
-66.4069876657
 30
0.0
 11
-529.4336230296
 21
-63.67202154
 31
0.0
  0
LINE
  5
3B4
330
1F
100
AcDbEntity
  8
0
  6
Continuous
 62
     7
370
    25
100
AcDbLine
 10
-589.4437593702
 20
-74.7901868234
 30
0.0
 11
-589.3600066832
 21
-75.0438405988
 31
0.0
  0
LINE
  5
3B5
330
1F
100
AcDbEntity
  8
0
  6
Continuous
 62
     7
370
    25
100
AcDbLine
 10
-589.3600066832
 20
-75.0438405988
 30
0.0
 11
-586.4438083172
 21
-75.0238338817
 31
0.0
  0
ARC
  5
3B6
330
1F
100
AcDbEntity
  8
0
  6
Continuous
 62
     7
370
    25
100
AcDbCircle
 10
-426.0527389803
 20
-152.63995747
 30
0.0
 40
3.984420293792431
100
AcDbArc
 50
20.2481862631
 51
90.4910134381
  0
ARC
  5
3B7
330
1F
100
AcDbEntity
  8
0
  6
Continuous
 62
     7
370
    25
100
AcDbCircle
 10
-426.0674693213
 20
-152.6535054981
 30
0.0
 40
3.997869154780647
100
AcDbArc
 50
90.2782477167
 51
196.1851072909
  0
ARC
  5
3B8
330
1F
100
AcDbEntity
  8
0
  6
Continuous
 62
     7
370
    25
100
AcDbCircle
 10
-535.1507652259
 20
-236.0462715237
 30
0.0
 40
0.9994732790493672
100
AcDbArc
 50
90.2646533353
 51
190.4225107815
  0
ARC
  5
3B9
330
1F
100
AcDbEntity
  8
0
  6
Continuous
 62
     7
370
    25
100
AcDbCircle
 10
-535.1473292377
 20
-236.0437699853
 30
0.0
 40
0.9969935988945702
100
AcDbArc
 50
26.0667372114
 51
90.4627769305
  0
ARC
  5
3BA
330
1F
100
AcDbEntity
  8
0
  6
Continuous
 62
     7
370
    25
100
AcDbCircle
 10
-535.2860908751
 20
-206.1544055783
 30
0.0
 40
0.9994732790478332
100
AcDbArc
 50
90.2646533352
 51
190.4225108069
  0
ARC
  5
3BB
330
1F
100
AcDbEntity
  8
0
  6
Continuous
 62
     7
370
    25
100
AcDbCircle
 10
-535.2826548868
 20
-206.1519040398
 30
0.0
 40
0.9969935988930193
100
AcDbArc
 50
26.0667371861
 51
90.4627769305
  0
ARC
  5
3BC
330
1F
100
AcDbEntity
  8
0
  6
Continuous
 62
     7
370
    25
100
AcDbCircle
 10
-519.2568570106
 20
-103.5121516271
 30
0.0
 40
0.999473279051362
100
AcDbArc
 50
90.2646533353
 51
190.4225107562
  0
ARC
  5
3BD
330
1F
100
AcDbEntity
  8
0
  6
Continuous
 62
     7
370
    25
100
AcDbCircle
 10
-519.2534210223
 20
-103.5096500886
 30
0.0
 40
0.9969935988959103
100
AcDbArc
 50
26.0667372365
 51
90.4627769305
  0
ARC
  5
3BE
330
1F
100
AcDbEntity
  8
0
  6
Continuous
 62
     7
370
    25
100
AcDbCircle
 10
-519.3921826597
 20
-73.6202856817
 30
0.0
 40
0.9994732790517036
100
AcDbArc
 50
90.2646533354
 51
190.4225107455
  0
ARC
  5
3BF
330
1F
100
AcDbEntity
  8
0
  6
Continuous
 62
     7
370
    25
100
AcDbCircle
 10
-519.3887466715
 20
-73.6177841432
 30
0.0
 40
0.9969935988965913
100
AcDbArc
 50
26.0667372471
 51
90.4627769305
  0
ENDSEC
  0
SECTION
  2
OBJECTS
  0
DICTIONARY
  5
C
330
0
100
AcDbDictionary
281
     1
  3
ACAD_GROUP
350
D
  3
ACAD_LAYOUT
350
1A
  3
ACAD_MLINESTYLE
350
17
  3
ACAD_PLOTSETTINGS
350
19
  3
ACAD_PLOTSTYLENAME
350
E
  3
ACAD_SCALELIST
350
47
  3
DWGPROPS
350
3C0
  0
DICTIONARY
  5
D
102
{ACAD_REACTORS
330
C
102
}
330
C
100
AcDbDictionary
281
     1
  0
DICTIONARY
  5
1A
102
{ACAD_REACTORS
330
C
102
}
330
C
100
AcDbDictionary
281
     1
  3
Layout1
350
1E
  3
Layout2
350
26
  3
Model
350
22
  0
DICTIONARY
  5
17
102
{ACAD_REACTORS
330
C
102
}
330
C
100
AcDbDictionary
281
     1
  3
Standard
350
18
  0
DICTIONARY
  5
19
102
{ACAD_REACTORS
330
C
102
}
330
C
100
AcDbDictionary
281
     1
  0
ACDBDICTIONARYWDFLT
  5
E
102
{ACAD_REACTORS
330
C
102
}
330
C
100
AcDbDictionary
281
     1
  3
Normal
350
F
100
AcDbDictionaryWithDefault
340
F
  0
DICTIONARY
  5
47
102
{ACAD_REACTORS
330
C
102
}
330
C
100
AcDbDictionary
281
     1
  3
A0
350
48
  3
A1
350
49
  3
A2
350
4A
  3
A3
350
4B
  3
A4
350
4C
  3
A5
350
4D
  3
A6
350
4E
  3
A7
350
4F
  3
A8
350
50
  3
A9
350
51
  3
B0
350
52
  3
B1
350
53
  3
B2
350
54
  3
B3
350
55
  3
B4
350
56
  3
B5
350
57
  3
B6
350
58
  0
XRECORD
  5
3C0
102
{ACAD_REACTORS
330
C
102
}
330
C
100
AcDbXrecord
280
     1
  1
DWGPROPS COOKIE
  2

  3

  4

  6

  7

  8
Leo
  9

300
=
301
=
302
=
303
=
304
=
305
=
306
=
307
=
308
=
309
=
 40
0.0
 41
2459851.464731782
 42
2459851.464759444
  1

 90
        0
  0
LAYOUT
  5
1E
102
{ACAD_REACTORS
330
1A
102
}
330
1A
100
AcDbPlotSettings
  1

  2
none_device
  4

  6

 40
0.0
 41
0.0
 42
0.0
 43
0.0
 44
0.0
 45
0.0
 46
0.0
 47
0.0
 48
0.0
 49
0.0
140
0.0
141
0.0
142
1.0
143
1.0
 70
   688
 72
     1
 73
     0
 74
     5
  7

 75
    16
147
1.0
148
0.0
149
0.0
100
AcDbLayout
  1
Layout1
 70
     1
 71
     1
 10
0.0
 20
0.0
 11
420.0
 21
297.0
 12
0.0
 22
0.0
 32
0.0
 14
1.0000000000E+20
 24
1.0000000000E+20
 34
1.0000000000E+20
 15
-1.0000000000E+20
 25
-1.0000000000E+20
 35
-1.0000000000E+20
146
0.0
 13
0.0
 23
0.0
 33
0.0
 16
1.0
 26
0.0
 36
0.0
 17
0.0
 27
1.0
 37
0.0
 76
     0
330
1B
  0
LAYOUT
  5
26
102
{ACAD_REACTORS
330
1A
102
}
330
1A
100
AcDbPlotSettings
  1

  2
none_device
  4

  6

 40
0.0
 41
0.0
 42
0.0
 43
0.0
 44
0.0
 45
0.0
 46
0.0
 47
0.0
 48
0.0
 49
0.0
140
0.0
141
0.0
142
1.0
143
1.0
 70
   688
 72
     1
 73
     0
 74
     5
  7

 75
    16
147
1.0
148
0.0
149
0.0
100
AcDbLayout
  1
Layout2
 70
     1
 71
     2
 10
0.0
 20
0.0
 11
0.0
 21
0.0
 12
0.0
 22
0.0
 32
0.0
 14
0.0
 24
0.0
 34
0.0
 15
0.0
 25
0.0
 35
0.0
146
0.0
 13
0.0
 23
0.0
 33
0.0
 16
1.0
 26
0.0
 36
0.0
 17
0.0
 27
1.0
 37
0.0
 76
     0
330
23
  0
LAYOUT
  5
22
102
{ACAD_REACTORS
330
1A
102
}
330
1A
100
AcDbPlotSettings
  1

  2
none_device
  4
ANSI_A_(11.00_x_8.50_Inches)
  6

 40
6.35
 41
19.05
 42
6.35000508
 43
19.05000254
 44
279.4
 45
215.9
 46
363.3281959495
 47
196.8937986818
 48
0.0
 49
0.0
140
0.0
141
0.0
142
0.0201524107
143
1.0
 70
  1696
 72
     0
 73
     0
 74
     0
  7

 75
     0
147
0.0179189148
148
-1300.4909072572
149
0.0
100
AcDbLayout
  1
Model
 70
     1
 71
     0
 10
0.0
 20
0.0
 11
420.0
 21
297.0
 12
0.0
 22
0.0
 32
0.0
 14
-591.6170730633
 24
-419.7624054852
 34
0.0
 15
-306.9612559448
 25
-2.1944971313
 35
0.0
146
0.0
 13
0.0
 23
0.0
 33
0.0
 16
1.0
 26
0.0
 36
0.0
 17
0.0
 27
1.0
 37
0.0
 76
     0
330
1F
331
29
  0
MLINESTYLE
  5
18
102
{ACAD_REACTORS
330
17
102
}
330
17
100
AcDbMlineStyle
  2
Standard
 70
     0
  3

 62
   256
 51
90.0
 52
90.0
 71
     2
 49
0.5
 62
   256
  6
BYLAYER
 49
-0.5
 62
   256
  6
BYLAYER
  0
ACDBPLACEHOLDER
  5
F
102
{ACAD_REACTORS
330
E
102
}
330
E
  0
SCALE
  5
48
102
{ACAD_REACTORS
330
47
102
}
330
47
100
AcDbScale
 70
     0
300
1:1
140
1.0
141
1.0
290
     1
  0
SCALE
  5
49
102
{ACAD_REACTORS
330
47
102
}
330
47
100
AcDbScale
 70
     0
300
1:2
140
1.0
141
2.0
290
     0
  0
SCALE
  5
4A
102
{ACAD_REACTORS
330
47
102
}
330
47
100
AcDbScale
 70
     0
300
1:4
140
1.0
141
4.0
290
     0
  0
SCALE
  5
4B
102
{ACAD_REACTORS
330
47
102
}
330
47
100
AcDbScale
 70
     0
300
1:5
140
1.0
141
5.0
290
     0
  0
SCALE
  5
4C
102
{ACAD_REACTORS
330
47
102
}
330
47
100
AcDbScale
 70
     0
300
1:8
140
1.0
141
8.0
290
     0
  0
SCALE
  5
4D
102
{ACAD_REACTORS
330
47
102
}
330
47
100
AcDbScale
 70
     0
300
1:10
140
1.0
141
10.0
290
     0
  0
SCALE
  5
4E
102
{ACAD_REACTORS
330
47
102
}
330
47
100
AcDbScale
 70
     0
300
1:16
140
1.0
141
16.0
290
     0
  0
SCALE
  5
4F
102
{ACAD_REACTORS
330
47
102
}
330
47
100
AcDbScale
 70
     0
300
1:20
140
1.0
141
20.0
290
     0
  0
SCALE
  5
50
102
{ACAD_REACTORS
330
47
102
}
330
47
100
AcDbScale
 70
     0
300
1:30
140
1.0
141
30.0
290
     0
  0
SCALE
  5
51
102
{ACAD_REACTORS
330
47
102
}
330
47
100
AcDbScale
 70
     0
300
1:40
140
1.0
141
40.0
290
     0
  0
SCALE
  5
52
102
{ACAD_REACTORS
330
47
102
}
330
47
100
AcDbScale
 70
     0
300
1:50
140
1.0
141
50.0
290
     0
  0
SCALE
  5
53
102
{ACAD_REACTORS
330
47
102
}
330
47
100
AcDbScale
 70
     0
300
1:100
140
1.0
141
100.0
290
     0
  0
SCALE
  5
54
102
{ACAD_REACTORS
330
47
102
}
330
47
100
AcDbScale
 70
     0
300
2:1
140
2.0
141
1.0
290
     0
  0
SCALE
  5
55
102
{ACAD_REACTORS
330
47
102
}
330
47
100
AcDbScale
 70
     0
300
4:1
140
4.0
141
1.0
290
     0
  0
SCALE
  5
56
102
{ACAD_REACTORS
330
47
102
}
330
47
100
AcDbScale
 70
     0
300
8:1
140
8.0
141
1.0
290
     0
  0
SCALE
  5
57
102
{ACAD_REACTORS
330
47
102
}
330
47
100
AcDbScale
 70
     0
300
10:1
140
10.0
141
1.0
290
     0
  0
SCALE
  5
58
102
{ACAD_REACTORS
330
47
102
}
330
47
100
AcDbScale
 70
     0
300
100:1
140
100.0
141
1.0
290
     0
  0
ENDSEC
  0
EOF
